<svg id="グループ_79" data-name="グループ 79" xmlns="http://www.w3.org/2000/svg" width="529.936" height="79.16" viewBox="0 0 529.936 79.16">
  <defs>
    <style>
      .cls-1 {
        fill: #81d8d0;
      }

      .cls-1, .cls-2 {
        fill-rule: evenodd;
      }

      .cls-2 {
        fill: #4f4f4f;
      }
    </style>
  </defs>
  <path id="シェイプ_1513" data-name="シェイプ 1513" class="cls-1" d="M1082.41,4026.74a22.812,22.812,0,0,0-32.78,0l-5.12,5.23-5.12-5.23a22.789,22.789,0,0,0-32.76,0,24.057,24.057,0,0,0,0,33.51l37.88,38.73,37.9-38.74A24.08,24.08,0,0,0,1082.41,4026.74Zm-8.85,37.08a4.237,4.237,0,0,1-3.77-2.37h-15.36a1.8,1.8,0,0,1-1.7-1.26l-1.1-3.39-5.49,26.78a1.8,1.8,0,0,1-1.75,1.45h-0.02a1.8,1.8,0,0,1-1.74-1.5l-7.29-40.49-5.42,17.14a1.788,1.788,0,0,1-1.7,1.27h-8.49a4.249,4.249,0,0,1-3.77,2.37,4.351,4.351,0,1,1,3.92-6.04h7.04l7.19-22.77a1.777,1.777,0,0,1,1.82-1.26,1.8,1.8,0,0,1,1.65,1.49l6.92,38.47,4.99-24.32a1.816,1.816,0,0,1,1.66-1.45,1.783,1.783,0,0,1,1.8,1.25l2.77,8.59h13.92a4.246,4.246,0,0,1,3.92-2.66A4.351,4.351,0,0,1,1073.56,4063.82Zm156.39-12.91a44.764,44.764,0,0,1-1.75-5.99h-16.66a38.081,38.081,0,0,1-1.71,5.99l-11.26,32.72q-1.62,4.74-2.43,6.58h14.8a44.354,44.354,0,0,1,1.17-5.85l1-3.7h13.61l1.01,3.7a51.5,51.5,0,0,1,1.16,5.85h14.8q-0.75-1.71-2.43-6.58Zm-13.92,19.16,3.87-14.12,3.85,14.12h-7.72Zm85.85-1.66q0-6.6-3.2-9.87c-1.92-1.95-4.84-2.92-8.78-2.92a15.015,15.015,0,0,0-8.53,2.3,15.862,15.862,0,0,0-2.76,2.64,15.254,15.254,0,0,0-.98-1.68,7.239,7.239,0,0,0-1.71-1.58,11.515,11.515,0,0,0-6.56-1.63,14.673,14.673,0,0,0-6.89,1.58,9.251,9.251,0,0,0-3.49,3.08v-3.65h-12.53a63.368,63.368,0,0,1,.42,8.65v16.23a77.306,77.306,0,0,1-.42,8.65h12.94a76.932,76.932,0,0,1-.41-8.65v-10.41a4.716,4.716,0,0,1,.68-2.15,7.888,7.888,0,0,1,1.67-2.09,4.8,4.8,0,0,1,3.31-1.27,3.016,3.016,0,0,1,2.68,1.24,7.893,7.893,0,0,1,.88,4.33v10.35a75.2,75.2,0,0,1-.41,8.65h13.04a77.535,77.535,0,0,1-.41-8.65V4071.1a16.349,16.349,0,0,1,.77-2.02,6.855,6.855,0,0,1,1.09-1.73,4.538,4.538,0,0,1,3.56-1.71,3.4,3.4,0,0,1,2.51.93c0.87,0.88,1.31,2.43,1.31,4.64v10.35a74.47,74.47,0,0,1-.41,8.65h13.04a78.2,78.2,0,0,1-.41-8.65v-13.15Zm39.41-.62q0-5.415-2.89-8.29a9.523,9.523,0,0,0-3.57-2.28,27.078,27.078,0,0,0-9.27-1.47,28.384,28.384,0,0,0-9.42,1.32,12.862,12.862,0,0,0-6.41,4.58,15.744,15.744,0,0,0-1.91,4.07l11.98,1.86a6.342,6.342,0,0,1,1.09-2.07,5.145,5.145,0,0,1,4.05-1.55,4.759,4.759,0,0,1,3.44,1.11,2.827,2.827,0,0,1,.8,2.12v1.43q-4.935.09-8.71,0.41a29.361,29.361,0,0,0-4.81.78,20.123,20.123,0,0,0-4.1,1.4,10.27,10.27,0,0,0-3.82,3,9.723,9.723,0,0,0-1.68,5.88,10.175,10.175,0,0,0,4.14,8.72q3.09,2.28,8.6,2.28a17.843,17.843,0,0,0,7.3-1.37,9.672,9.672,0,0,0,3.08-2.49v2.98h12.47a72.68,72.68,0,0,1-.36-8.05v-14.37Zm-12.11,10.12a4.319,4.319,0,0,1-1.4,3.11,7.236,7.236,0,0,1-5.32,2.1,4.35,4.35,0,0,1-3.15-1.04,2.729,2.729,0,0,1-.77-2.04,2.968,2.968,0,0,1,.54-1.79,5.837,5.837,0,0,1,3.41-1.79,36.975,36.975,0,0,1,6.69-.62v2.07Zm32.05,1.74,8.37-9.01q1.545-1.695,4.8-4.92v-9.2q-1.89.165-7.77,0.16H1354.9q-5.01,0-8.63-.36v11.03a81.692,81.692,0,0,1,8.63-.37h3.33l-8.16,8.91q-2.5,2.64-4.8,4.87v9.61q1.9-.165,7.56-0.16h13.85a79.68,79.68,0,0,1,8.68.36v-11.29a80.464,80.464,0,0,1-8.63.37h-5.5Zm92.56-11.34a17.649,17.649,0,0,0-1.11-6.35,9.03,9.03,0,0,0-2.09-3.23q-3.1-3.06-8.55-3.06a15.624,15.624,0,0,0-8.24,2.25,18.31,18.31,0,0,0-2.97,2.41v-3.65h-12.52a81.938,81.938,0,0,1,.41,8.65v16.23a76.432,76.432,0,0,1-.41,8.65h12.93q-0.4-4.035-.41-8.65V4071.1a11.826,11.826,0,0,1,2.09-3.34,6.4,6.4,0,0,1,4.68-2.12c2.65,0,3.97,1.85,3.97,5.57v10.35a76.794,76.794,0,0,1-.41,8.65h13.04a76.932,76.932,0,0,1-.41-8.65v-13.25Zm39.77,6.36c0-.25-0.01-0.59-0.05-1q-0.435-9.15-5.42-13.93-4.68-4.485-12.3-4.48a19.616,19.616,0,0,0-8.96,1.99,15.859,15.859,0,0,0-6.45,6.03,19.151,19.151,0,0,0-2.61,10.18,20.357,20.357,0,0,0,2.01,9.19,16.136,16.136,0,0,0,4.91,5.75q4.5,3.255,11.47,3.26a20.7,20.7,0,0,0,9.45-2.02,14.553,14.553,0,0,0,5.11-4.22,23.129,23.129,0,0,0,2.38-4.27l-11.06-2.98a8.66,8.66,0,0,1-.54,1.32,4.792,4.792,0,0,1-1.13,1.32,7.016,7.016,0,0,1-4.52,1.35,5.355,5.355,0,0,1-5.45-3.42,8.967,8.967,0,0,1-.52-2.15h23.81C1493.64,4076.16,1493.6,4075.52,1493.56,4074.67Zm-23.58-5.51a6.209,6.209,0,0,1,1.06-2.25,6.581,6.581,0,0,1,9.43-.31,5.525,5.525,0,0,1,1.16,2.56h-11.65Zm58.53,5.26a8.845,8.845,0,0,0-3.18-3.06,22.663,22.663,0,0,0-6.48-2.25c-2.9-.66-4.69-1.05-5.4-1.19-1.07-.21-1.68-0.33-1.83-0.37a5.887,5.887,0,0,1-1.53-.59,1.529,1.529,0,0,1-.95-1.24,1.789,1.789,0,0,1,.51-1.25,4.25,4.25,0,0,1,3-.88q2.5,0,3.33,1.17a3.564,3.564,0,0,1,.49,1.91l12.19-1.21a17.827,17.827,0,0,0-1.11-3.21,9.962,9.962,0,0,0-2.48-3.19q-3.975-3.42-12.03-3.42a26.269,26.269,0,0,0-9.07,1.51,11.088,11.088,0,0,0-3.9,2.51,9.085,9.085,0,0,0-2.63,6.78,10.139,10.139,0,0,0,1.81,6.09c1.32,1.86,3.58,3.17,6.76,3.93q3.075,0.75,6.79,1.4c1.38,0.24,2.16.38,2.35,0.41a7.354,7.354,0,0,1,1.79.63,1.721,1.721,0,0,1,.93,1.63c0,1.53-1.35,2.3-4.03,2.3a5.733,5.733,0,0,1-4.11-1.27,4.247,4.247,0,0,1-1.14-2.74l-12.47,1.32a14.113,14.113,0,0,0,1.01,3.88,10.361,10.361,0,0,0,5.45,5.31,20.3,20.3,0,0,0,4.81,1.33,34.661,34.661,0,0,0,5.9.51,29.35,29.35,0,0,0,9.84-1.58,10.432,10.432,0,0,0,3.8-2.46A11.354,11.354,0,0,0,1528.51,4074.42Zm-132.34-19.11a18.164,18.164,0,1,0,18.55,18.16A18.352,18.352,0,0,0,1396.17,4055.31Zm12.87,22.74h-8.39v8.58h-8.95v-8.58h-8.4v-9.16h8.4v-8.58h8.95v8.58h8.39v9.16Z" transform="translate(-999.844 -4019.81)"/>
  <path id="シェイプ_1513_のコピー" data-name="シェイプ 1513 のコピー" class="cls-2" d="M1103.09,4090.13v-45.21h19.41c14.25,0,23.09,6.79,23.09,21.67,0,17.01-9.27,23.54-23.46,23.54h-19.04Zm14.49-10.54h3.07c6.76,0,10.44-3.65,10.44-12.19,0-9.42-3-11.93-10.74-11.93h-2.77v24.12Zm32.49-22.36h11.61v6.66h0.12c1.78-5.15,4.91-7.6,9.89-7.6a15.924,15.924,0,0,1,1.66.19v13.06a18.453,18.453,0,0,0-2.64-.38c-5.22,0-7.86,2.51-7.86,9.61v11.36h-12.78v-32.9Zm27.76,32.9V4077.2h13.02v12.93h-13.02Z" transform="translate(-999.844 -4019.81)"/>
</svg>
