<svg version="1.2" xmlns="http://www.w3.org/2000/svg" viewBox="0 0 52 45" width="52" height="45">
	<style>
		.s0 { fill: #81d7cf } 
	</style>
	<path id="icon" fill-rule="evenodd" class="s0" d="m40.42 33.92v3.86c0 0.53-0.43 0.96-0.96 0.96-0.53 0-0.96-0.43-0.96-0.96v-3.86c0-0.53 0.43-0.96 0.96-0.96 0.53 0 0.96 0.43 0.96 0.96zm-26.92-9.54v3.85c0 0.53-0.43 0.97-0.96 0.97-0.53 0-0.97-0.44-0.97-0.97v-3.85c0-0.53 0.44-0.97 0.97-0.97 0.53 0 0.96 0.44 0.96 0.97zm10.58-21.22v28.93c0 1.59-1.3 2.89-2.89 2.89h-17.31c-1.59 0-2.88-1.3-2.88-2.89v-28.93c0-1.59 1.29-2.89 2.88-2.89h17.31c1.59 0 2.89 1.3 2.89 2.89zm-1.93 0c0-0.53-0.43-0.96-0.96-0.96h-0.96v2.89c0 0.53-0.43 0.97-0.96 0.97-0.53 0-0.96-0.44-0.96-0.97v-2.89h-11.54v3.86c0 0.53-0.44 0.96-0.97 0.96-0.52 0-0.96-0.43-0.96-0.96v-3.86h-0.96c-0.53 0-0.96 0.43-0.96 0.96v28.93c0 0.53 0.43 0.96 0.96 0.96h1.92v-4.82c0-0.53 0.44-0.96 0.97-0.96 0.53 0 0.96 0.43 0.96 0.96v4.82h9.61v-5.78c0-0.53 0.44-0.97 0.97-0.97 0.53 0 0.96 0.44 0.96 0.97v5.78h1.92c0.53 0 0.96-0.43 0.96-0.96zm-2.55 12.68c-0.07 0.47-0.49 0.82-0.96 0.82q-0.07 0-0.13-0.01c-0.53-0.08-0.9-0.57-0.82-1.1 0.29-1.96-0.43-3.82-1.86-4.86q-0.21-0.14-0.41-0.25v0.43c0 1.06-0.86 1.93-1.92 1.93h-1.93c-1.05 0-1.92-0.87-1.92-1.93v-0.43q-0.2 0.11-0.4 0.25c-1.44 1.04-2.16 2.9-1.87 4.86 0.08 0.53-0.29 1.02-0.82 1.1q-0.06 0.01-0.13 0.01c-0.47 0-0.88-0.35-0.95-0.82-0.4-2.69 0.62-5.25 2.65-6.71q0.7-0.51 1.52-0.79v-1.32c0-1.06 0.87-1.93 1.92-1.93h1.93c1.06 0 1.92 0.87 1.92 1.93v1.32q0.83 0.28 1.52 0.79c2.03 1.46 3.05 4.02 2.66 6.71zm-6.1-8.82h-1.93v3.85h1.93zm37.5 5.69v28.93c0 1.59-1.3 2.89-2.88 2.89h-17.31c-1.59 0-2.89-1.3-2.89-2.89v-28.93c0-1.59 1.3-2.89 2.89-2.89h17.31c1.58 0 2.88 1.3 2.88 2.89zm-1.92 0c0-0.53-0.43-0.96-0.96-0.96h-0.96v2.89c0 0.53-0.44 0.97-0.97 0.97-0.52 0-0.96-0.44-0.96-0.97v-2.89h-11.54v3.86c0 0.53-0.43 0.96-0.96 0.96-0.53 0-0.96-0.43-0.96-0.96v-3.86h-0.96c-0.53 0-0.96 0.43-0.96 0.96v28.93c0 0.53 0.43 0.97 0.96 0.97h1.92v-4.83c0-0.53 0.43-0.96 0.96-0.96 0.53 0 0.96 0.43 0.96 0.96v4.83h9.62v-5.79c0-0.53 0.43-0.96 0.96-0.96 0.53 0 0.96 0.43 0.96 0.96v5.79h1.93c0.53 0 0.96-0.44 0.96-0.97zm-2.56 12.68c-0.07 0.47-0.48 0.82-0.95 0.82q-0.07 0-0.13-0.01c-0.53-0.08-0.9-0.57-0.82-1.1 0.29-1.95-0.44-3.82-1.87-4.86q-0.2-0.14-0.4-0.25v0.44c0 1.06-0.87 1.92-1.93 1.92h-1.92c-1.06 0-1.92-0.86-1.92-1.92v-0.44q-0.2 0.11-0.41 0.25c-1.43 1.04-2.15 2.91-1.86 4.86 0.08 0.53-0.29 1.02-0.82 1.1q-0.06 0.01-0.13 0.01c-0.47 0-0.89-0.35-0.96-0.82-0.39-2.69 0.63-5.25 2.66-6.71q0.69-0.5 1.52-0.79v-1.32c0-1.06 0.86-1.93 1.92-1.93h1.92c1.06 0 1.93 0.87 1.93 1.93v1.32q0.82 0.29 1.52 0.79c2.03 1.46 3.05 4.02 2.65 6.71zm-6.1-8.82h-1.92v3.86h1.92z"/>
</svg>