<svg version="1.2" xmlns="http://www.w3.org/2000/svg" viewBox="0 0 77 77" width="77" height="77">
	<style>
		.s0 { fill: #81d8d0 } 
		.s1 { fill: #4f4f4f } 
	</style>
	<path id="シェイプ 667 のコピー" fill-rule="evenodd" class="s0" d="m15.11 40.79c0-14.18 11.5-25.68 25.68-25.68 14.19 0 25.68 11.5 25.68 25.68 0 14.18-11.49 25.68-25.68 25.68-14.17-0.02-25.66-11.51-25.68-25.68zm24.52-23.28c-11.96 0.6-21.51 10.16-22.12 22.11v2.34c0.61 11.95 10.16 21.51 22.12 22.11h2.33c11.96-0.6 21.51-10.16 22.12-22.11v-2.34c-0.61-11.95-10.16-21.51-22.12-22.11zm27.45 8.13c8.38 14.51 3.4 33.06-11.1 41.43-14.51 8.38-33.07 3.41-41.44-11.1h-6.42c-0.65 0-1.17-0.52-1.17-1.17 0-0.64 0.52-1.17 1.17-1.17h7q0.04 0.01 0.09 0.02c0.42 0 0.81 0.23 1.01 0.59 2.57 4.7 6.44 8.56 11.13 11.13 13.58 7.43 30.6 2.44 38.03-11.13 7.42-13.57 2.44-30.59-11.13-38.02-13.58-7.43-30.6-2.44-38.03 11.13-0.2 0.36-0.59 0.59-1.01 0.58q-0.05 0.01-0.09 0.02h-7c-0.65 0-1.17-0.52-1.17-1.17 0-0.64 0.52-1.16 1.17-1.16h6.42c5.2-9.02 14.68-14.74 25.09-15.14v-7.04h-8.17c-0.64 0-1.17-0.52-1.17-1.17 0-0.64 0.53-1.16 1.17-1.16h18.68c0.64 0 1.16 0.52 1.16 1.16 0 0.65-0.52 1.17-1.16 1.17h-8.17v7.03c5.63 0.21 11.09 1.99 15.75 5.15l2.89-2.88c0.46-0.46 1.2-0.46 1.65 0l6.6 6.59c0.45 0.46 0.45 1.2 0 1.65l-2.89 2.89q0.59 0.86 1.11 1.77zm-7.45-8.62q2.76 2.19 4.94 4.95l1.81-1.81-4.94-4.95zm-48.02 24.94h-9.34c-0.64 0-1.16-0.52-1.16-1.16 0-0.65 0.52-1.17 1.16-1.17h9.34c0.65 0 1.17 0.52 1.17 1.17 0 0.64-0.52 1.16-1.17 1.16zm-8.17-8.17c0-0.64 0.52-1.17 1.17-1.17h8.17c0.64 0 1.17 0.53 1.17 1.17 0 0.65-0.53 1.17-1.17 1.17h-8.17c-0.65 0-1.17-0.52-1.17-1.17zm9.34 15.18h-8.17c-0.65 0-1.17-0.53-1.17-1.17 0-0.65 0.52-1.17 1.17-1.17h8.17c0.64 0 1.17 0.52 1.17 1.17 0 0.64-0.53 1.17-1.17 1.17z"/>
	<path id="sec" class="s1" aria-label="sec"  d="m33.2 55q-0.7 0-1.3-0.2-0.6-0.2-1.2-0.5-0.5-0.3-0.9-0.7l1.3-1.3q0.4 0.4 0.9 0.7 0.5 0.2 1.2 0.2 0.5 0 0.7-0.1 0.3-0.2 0.3-0.5 0-0.3-0.3-0.5-0.2-0.1-0.7-0.3-0.4-0.1-0.9-0.2-0.5-0.2-1-0.4-0.4-0.3-0.7-0.7-0.3-0.5-0.3-1.2 0-0.7 0.4-1.3 0.4-0.5 1-0.8 0.7-0.3 1.6-0.3 1 0 1.7 0.3 0.8 0.4 1.3 1l-1.2 1.3q-0.4-0.4-0.8-0.6-0.5-0.2-1-0.2-0.4 0-0.7 0.1-0.2 0.2-0.2 0.4 0 0.3 0.2 0.5 0.3 0.1 0.8 0.3 0.4 0.1 0.9 0.2 0.5 0.2 0.9 0.4 0.5 0.3 0.7 0.8 0.3 0.4 0.3 1.1 0 1.2-0.8 1.8-0.8 0.7-2.2 0.7zm8.1 0q-1.2 0-2.1-0.5-1-0.6-1.5-1.5-0.6-0.9-0.6-2.1 0-1.1 0.6-2 0.5-0.9 1.4-1.5 1-0.5 2.1-0.5 1.1 0 2 0.5 0.8 0.5 1.3 1.4 0.5 0.9 0.5 2 0 0.2 0 0.4-0.1 0.2-0.1 0.5h-6.5v-1.6h5.5l-0.8 0.7q-0.1-0.7-0.3-1.2-0.2-0.5-0.6-0.7-0.4-0.2-1-0.2-0.6 0-1.1 0.2-0.5 0.3-0.7 0.8-0.3 0.5-0.3 1.2 0 0.7 0.3 1.2 0.3 0.6 0.8 0.8 0.5 0.3 1.1 0.3 0.6 0 1.1-0.2 0.5-0.2 0.8-0.6l1.3 1.2q-0.6 0.7-1.4 1-0.8 0.4-1.8 0.4zm8.6 0q-1.1 0-2.1-0.5-0.9-0.6-1.5-1.5-0.5-0.9-0.5-2.1 0-1.1 0.5-2 0.6-0.9 1.5-1.5 1-0.5 2.2-0.5 0.9 0 1.6 0.4 0.8 0.3 1.4 0.9l-1.4 1.4q-0.3-0.4-0.7-0.6-0.4-0.1-0.9-0.1-0.6 0-1.1 0.2-0.4 0.3-0.7 0.8-0.3 0.4-0.3 1 0 0.6 0.3 1.1 0.3 0.5 0.7 0.8 0.5 0.2 1.1 0.2 0.5 0 0.9-0.2 0.4-0.1 0.7-0.5l1.4 1.4q-0.6 0.6-1.4 0.9-0.7 0.4-1.7 0.4z"/>
	<path id="5" class="s1" aria-label="5"  d="m39.8 43.1q-1.8 0-3.2-0.7-1.4-0.6-2.4-1.7l2.1-2.2q0.5 0.7 1.4 1.2 0.9 0.4 2 0.4 1 0 1.7-0.3 0.8-0.4 1.2-1 0.4-0.7 0.4-1.6 0-1-0.4-1.6-0.4-0.6-1.2-1-0.6-0.3-1.5-0.3-0.9 0-1.6 0.2-0.8 0.2-1.4 0.7l0.1-2q0.5-0.5 1-0.8 0.5-0.3 1.1-0.4 0.7-0.2 1.6-0.2 1.8 0 3 0.8 1.3 0.7 1.9 2 0.7 1.2 0.7 2.7 0 1.7-0.9 3-0.8 1.3-2.2 2-1.5 0.8-3.4 0.8zm-1.6-9.3l-1.3 1.4-1.6-1.5 0.8-7.8h2.9zm7.2-5h-8.8l-0.5-2.9h9.3z"/>
</svg>