<?xml version="1.0" encoding="utf-8" ?><svg xmlns="http://www.w3.org/2000/svg" xmlns:xlink="http://www.w3.org/1999/xlink" width="300" height="300" viewBox="0 0 300 300"><path fill="#A3EEE7" d="M95.6506 126.558C118.718 126.719 141.786 126.757 164.854 126.673L188.117 126.664C192.589 126.66 198.914 126.801 203.218 126.338C201.995 128.667 200.409 132.568 199.29 135.08L191.711 152.069L165.824 209.929L149.203 247.094C145.075 239.25 140.479 227.869 136.756 219.622L109.347 158.226L98.5443 134.111C97.8574 132.572 95.5027 127.955 95.6506 126.558Z"/><path fill="#A3EEE7" d="M106.671 79.8731L164.994 79.9307C173.41 79.928 184.49 79.5839 192.688 80.026C196.254 92.4936 200.369 105.343 204.098 117.82C200.902 117.43 195.194 117.53 191.875 117.527L94.1903 117.562C98.2694 105.474 101.319 92.6179 105.416 80.515C105.573 80.0534 106.25 79.9876 106.671 79.8731Z"/><path fill="#A3EEE7" d="M269.862 111.251L270.276 111.246L270.571 111.619C270.463 112.364 269.802 113.01 269.292 113.604L208.96 182.829L181.197 214.688C176.97 219.527 171.623 226.014 167.298 230.584L167.035 230.66L166.717 230.396C166.731 229.163 170.714 220.988 171.518 219.161L189.523 178.758L204.522 145.136C207.248 139.037 209.837 132.378 213.181 126.663C214.031 125.21 221.39 124.075 223.337 123.558L252.464 115.98C257.517 114.685 265.105 112.956 269.862 111.251Z"/><path fill="#A3EEE7" d="M27.2746 111.227C28.8982 111.176 39.3307 114.304 41.7912 114.939L69.1186 121.971C74.0999 123.266 79.75 124.596 84.5913 126.176C85.2086 126.802 85.7973 127.489 86.1595 128.294C90.3278 137.559 94.4748 146.881 98.597 156.164L119.489 202.999C122.481 209.601 125.419 216.227 128.303 222.877C129.154 224.807 131.329 229.005 131.613 230.847L131.421 230.776C130.293 230.371 114.308 211.587 112.11 208.995C106.062 201.867 99.779 194.921 93.6544 187.854L50.4533 138.147L36.0968 121.679C34.5187 119.894 28.1862 112.972 27.2746 111.227Z"/><path fill="#A3EEE7" d="M109.354 51.6253L167.069 51.6657L183.258 51.6224C186.059 51.6077 192.734 51.4467 195.265 51.8593C200.303 52.6806 207.419 54.5628 212.407 55.9398C217.941 57.4675 228.301 59.4782 232.998 61.6839C228.868 62.1873 225.024 63.2629 220.997 64.2714L205.879 68.0535C199.598 69.6126 197.066 70.5438 190.563 70.5358L131.224 70.51L113.916 70.5384C104.135 70.5563 101.849 70.3276 92.3419 67.9678L76.6643 64.0565C75.552 63.7788 66.869 61.7361 66.7338 61.617L66.9078 61.2527C68.6354 59.891 71.1372 59.7333 73.2354 59.2136L82.7131 56.7877C91.8923 54.4234 99.8305 51.6278 109.354 51.6253Z"/><path fill="#A3EEE7" d="M48.1918 65.9968C52.9261 67.5259 60.1059 69.1604 65.0482 70.4179L96.5082 78.4314C93.1763 90.6819 88.968 104.672 85.1526 116.811C81.0855 115.526 76.9669 114.41 72.8075 113.465C67.1401 111.727 22.9304 101.387 21.9297 100.26C23.0554 98.0041 25.9856 94.4439 27.6289 92.3264L36.6261 80.7496L43.7043 71.6384C44.9702 69.995 46.807 67.4436 48.1918 65.9968Z"/><path fill="#A3EEE7" d="M249.163 66.3159L249.747 66.3307C251.775 67.605 275.341 98.0851 276.433 100.268C276.033 100.771 275.884 100.838 275.249 100.987C258.984 104.817 242.724 109.509 226.45 113.215C223.196 114.186 215.881 115.533 213.173 116.898C209.126 104.382 205.659 91.1319 201.762 78.4882C203.581 77.7779 210.89 76.1051 213.048 75.5605L237.155 69.4296C240.436 68.592 246.106 67.3465 249.163 66.3159Z"/></svg>