<?xml version="1.0" encoding="utf-8" ?><svg xmlns="http://www.w3.org/2000/svg" xmlns:xlink="http://www.w3.org/1999/xlink" width="300" height="300" viewBox="0 0 300 300"><defs><linearGradient id="gradient_0" gradientUnits="userSpaceOnUse" x1="100.53093" y1="122.04617" x2="198.92886" y2="210.87926"><stop offset="0" stop-color="#C48250"/><stop offset="1" stop-color="#EEA875"/></linearGradient></defs><path fill="url(#gradient_0)" d="M146.404 89.1057C146.853 89.0635 147.304 89.0387 147.755 89.0315C159.924 88.7201 170.787 91.4469 179.892 100.002C193.601 112.882 197.468 135.115 197.656 153.294C197.909 177.661 192.071 204.908 181.701 227.112C180.171 230.029 178.627 233.982 176.561 236.473C175.506 237.744 168.925 237.371 167.179 237.368L153.938 237.35C144.599 237.338 133.033 237.748 123.992 237.26C115.923 226.034 110.468 207.613 107.187 194.242C98.491 158.801 96.8088 92.5918 146.404 89.1057Z"/><defs><linearGradient id="gradient_1" gradientUnits="userSpaceOnUse" x1="259.09064" y1="205.72934" x2="189.44168" y2="138.16039"><stop offset="0" stop-color="#CF8554"/><stop offset="1" stop-color="#EA7"/></linearGradient></defs><path fill="url(#gradient_1)" d="M235.148 107.615C235.754 107.528 239.418 107.813 240.205 107.929C250.677 109.386 262.809 115.982 269.251 124.401C289.857 151.335 269.136 189.024 251.978 212.241C248.183 217.115 244.197 222.088 239.877 226.505C237.296 229.142 234.264 232.667 231.394 234.928C230.528 235.749 229.023 237.155 227.765 237.191C218.121 237.465 208.392 237.333 198.739 237.241C197.24 237.227 194.841 236.326 195.384 234.494C196.602 230.395 198.522 226.443 200.032 222.409C202.799 215.093 205.13 207.618 207.011 200.025C213.037 175.148 214.988 147.624 208.908 122.575C208.412 120.479 207.503 118.812 209.385 117.113C216.767 110.45 225.511 108.191 235.148 107.615Z"/><defs><linearGradient id="gradient_2" gradientUnits="userSpaceOnUse" x1="28.032681" y1="127.81595" x2="122.43468" y2="215.72141"><stop offset="0" stop-color="#AF6F3D"/><stop offset="1" stop-color="#DF9A67"/></linearGradient></defs><path fill="url(#gradient_2)" d="M60.8966 107.851C71.9912 107.232 82.2881 109.859 90.9638 117.165C92.8209 118.729 90.0725 127.458 89.6042 130.115C85.0155 156.15 88.2292 183.993 95.6095 209.241C97.097 214.227 98.7919 219.149 100.69 223.994C101.761 226.7 104.463 232.321 104.828 235.326C105.008 236.813 100.991 237.324 99.6454 237.339C92.6971 237.413 85.6062 237.321 78.6447 237.354C76.3854 237.365 74.0916 237.455 71.8717 237.116C69.1519 236.514 58.4221 224.628 56.0501 221.836C35.2611 197.374 7.15312 153.021 32.0975 122.98C38.3162 115.491 51.133 108.607 60.8966 107.851Z"/><defs><linearGradient id="gradient_3" gradientUnits="userSpaceOnUse" x1="221.96948" y1="316.36771" x2="77.942986" y2="215.29454"><stop offset="0" stop-color="#C07443"/><stop offset="1" stop-color="#EDA876"/></linearGradient></defs><path fill="url(#gradient_3)" d="M60.3779 250.088C62.1768 249.857 66.5659 249.95 68.4589 249.954L82.778 249.964L132.458 249.957L203.982 249.944L226.822 249.943C233.683 249.945 242.327 248.944 248.11 253.076C251.52 255.521 253.803 259.236 254.445 263.383C255.977 273.058 249.481 280.457 240.061 281.966C236.836 282.211 232.035 282.076 228.737 282.071L209.252 282.052L146.57 282.051L88.8257 282.052L70.7524 282.051C67.7387 282.052 63.1892 282.183 60.2921 281.931C57.1572 281.628 54.169 280.456 51.6637 278.548C48.4138 276.02 46.0497 271.977 45.5615 267.878C45.0763 263.579 46.3491 259.267 49.0907 255.921C52.1529 252.135 55.6927 250.589 60.3779 250.088Z"/><path fill="#BC7B48" d="M149.822 18.686C151.412 19.0897 177.139 45.3202 180.717 48.5601C177.388 51.3136 172.214 56.8058 168.997 60.027C162.868 66.1619 156.435 72.4326 150.448 78.6816C149.261 78.5164 141.135 69.9871 139.802 68.6524L119.658 48.5392C125.156 42.5666 132.04 36.2747 137.751 30.3691C140.064 27.9775 147.513 20.3902 149.822 18.686Z"/></svg>