<?xml version="1.0" encoding="utf-8" ?><svg xmlns="http://www.w3.org/2000/svg" xmlns:xlink="http://www.w3.org/1999/xlink" width="256" height="286" viewBox="0 0 256 286"><path fill="#81D6CF" d="M0 136.179C2.51699 134.886 4.23427 130.472 6.10487 127.961C8.11132 125.266 12.9304 119.135 13.9666 116.219C16.8668 108.059 11.8273 93.3919 14.4616 85.9949C17.3798 77.8008 33.7766 75.4546 39.8575 69.9947C47.7482 62.9099 47.5918 47.8038 57.534 42.9079C65.4115 39.0287 77.9025 44.9417 85.7299 42.9439C93.2864 41.0153 99.2739 33.5326 106.654 30.094C119.913 23.9165 127.152 38.3207 138.037 42.2688C144.28 44.533 151.967 43.1226 157.845 40.4225C161.238 41.1779 165.105 41.0019 166.869 41.4585C166.935 49.944 158.829 60.1066 167.386 66.357C176.583 73.0749 188.217 79.6795 197.905 85.9209C200.864 87.8271 207.994 86.1 211.315 85.5459C213.335 89.4817 210.705 108.082 211.533 113.694C213.171 124.328 229.236 133.291 225.477 144.896C222.762 152.442 215.24 158.906 212.177 165.937C210.606 169.542 211.174 180.865 211.895 184.56C215.889 205.047 199.896 203.663 187.299 211.579C179.552 216.447 178.328 233.198 170.421 238.824C161.343 243.969 149.201 237.414 139.638 239.929C130.616 242.302 125.968 250.253 117.338 253.389C106.066 257.484 97.6384 243.636 88.1536 240.529C74.7147 236.126 58.1755 249.051 50.0986 231.301C47.4642 225.837 45.832 219.699 41.9667 214.766C35.7187 206.792 18.3454 206.029 14.4948 196.394C11.3779 186.827 17.3907 175.571 13.9188 166.005C12.4923 162.074 8.49695 157.641 5.99302 154.198C4.00102 151.459 3.3074 147.71 0 146.755L0 136.179ZM119.143 226.754C166.388 223.363 201.919 182.283 198.466 135.043C195.014 87.802 153.887 52.3246 106.651 55.839C59.5021 59.3468 24.1043 100.381 27.5507 147.535C30.9971 194.688 71.9851 230.139 119.143 226.754Z"/><path fill="#525151" d="M156.975 106.468C160.519 106.459 159.537 114.676 159.527 117.169L159.516 130.682C159.512 145.115 159.413 159.596 159.654 174.025C159.666 174.735 159.656 176.036 159.256 176.587C157.371 177.697 153.263 177.236 151.09 177.07C150.64 174.081 150.797 170.945 150.798 167.907L150.806 155.125C150.774 149.051 150.797 142.976 150.873 136.903C150.925 132.753 151.118 127.982 150.909 123.898C149.808 124.015 148.539 124.298 147.438 124.514C145.191 127.642 141.666 129.747 138.089 131.103C136.826 131.582 135.108 131.5 133.726 131.505C133.566 130.396 132.982 127.016 133.655 126.177C137.897 120.888 144.794 119.165 149.005 113.334C151.154 110.359 153.682 107.685 156.975 106.468Z"/><path fill="#525151" fill-opacity="0.98823529" d="M100.258 139.569C104.096 139.293 107.161 140.411 110.166 142.603C117.201 147.733 117.477 161.22 111.138 167.053C108.759 169.242 106.922 169.77 103.951 170.193C95.7638 170.322 90.7964 168.752 88.7347 159.798C86.5482 150.303 89.9565 141.618 100.258 139.569ZM102.678 165.613C109.958 164.737 110.368 158.298 109.826 152.236C109.585 149.55 108.43 147.3 106.298 145.628C105.374 144.929 102.85 143.442 101.686 143.504C99.4752 144.379 95.4655 146.524 94.6479 148.888C93.3591 152.615 93.3952 158.061 94.8427 161.759C96.1811 165.179 99.3635 165.594 102.678 165.613Z"/><path fill="#525151" d="M76.0483 128.776C76.8172 128.768 77.7655 128.745 78.4996 128.98C79.2048 129.205 79.7335 129.706 80.0509 130.366C80.3422 130.972 80.4658 131.629 80.5024 132.296C80.7092 136.064 80.6803 168.099 80.3808 168.838C80.1818 169.329 80.0308 169.491 79.5344 169.7C78.4934 170.138 76.428 170.031 75.4149 169.553C74.5579 169.148 73.8075 168.042 73.2568 167.283C69.456 162.044 66.1068 156.378 62.5152 150.985C60.4552 147.892 56.751 143.65 55.5235 140.38C55.3579 139.939 55.1753 139.504 54.9997 139.067L54.7044 139.037C52.7759 141.915 54.0386 157.075 53.8154 161.357C53.6729 164.091 54.931 168.329 52.0954 170.031C49.8778 170.003 49.1189 169.218 47.3863 167.831C47.0798 164.766 47.2562 157.326 47.2641 154.025C47.2824 146.467 47.1233 138.472 47.3524 130.94C50.5893 129.085 51.9961 127.399 55.3005 131.282C59.1281 135.779 61.8359 141.313 65.3943 145.993C68.8356 150.518 70.9071 155.008 73.465 159.985C73.9935 159.042 74.7756 157.651 74.9622 156.633C75.941 151.292 73.9952 132.975 76.0483 128.776Z"/><path fill="#525151" fill-opacity="0.98823529" d="M124.211 164.06C128.495 163.289 129.014 165.905 128.155 169.422C128.036 169.91 127.733 169.915 127.307 170.081C125.638 170.12 124.643 170.244 123.368 169.047C121.576 167.363 122.289 165.184 124.211 164.06Z"/><path fill="#89E3D9" d="M125.912 51.8244C128.131 51.6669 135.255 51.4749 136.995 52.8902L136.797 53.3375C135.866 53.7909 134.847 53.7833 133.811 53.8525C129.886 54.4323 125.526 53.9337 121.766 52.7601C123.193 52.3439 124.459 52.1083 125.912 51.8244Z"/><path fill="#89E3D9" d="M128.436 228.328C130.335 228.196 136.54 227.77 137.796 229.262L137.515 229.757C136.786 230.322 135.657 230.26 134.703 230.31C132.796 230.406 127.366 230.763 125.8 229.788L125.858 229.375C126.544 228.763 127.538 228.577 128.436 228.328Z"/><path fill="#89E3D9" d="M79.7995 224.308C81.0855 224.31 84.0137 224.612 84.6864 225.881C84.3042 226.569 84.3309 226.378 83.3567 226.695C82.0386 226.727 78.5431 227.032 78.3491 225.305C78.8528 224.67 79.0798 224.614 79.7995 224.308Z"/><path fill="#89E3D9" d="M82.1279 55.6017C83.4233 55.5343 84.7625 55.241 85.6776 56.3266L85.5552 56.8711C84.8981 57.3972 84.5491 57.4687 83.7702 57.7233C82.1257 57.7551 80.7991 57.8607 79.4789 56.8201L79.5126 56.3453C80.1942 55.7226 81.1883 55.7161 82.1279 55.6017Z"/><path fill="#89E3D9" d="M144.048 224.295C145.343 224.391 146.719 224.271 147.372 225.5L147.101 225.996C146.33 226.573 145.182 226.49 144.189 226.526C143.159 226.665 141.832 226.977 141.436 225.807C142.004 224.713 142.935 224.566 144.048 224.295Z"/><path fill="#89E3D9" d="M6.43218 145.092C9.05997 145.732 8.3773 149.12 8.05184 151.199C5.53959 150.303 6.21259 147.339 6.43218 145.092Z"/><path fill="#89E3D9" d="M150.448 59.244C151.662 59.3035 153.989 59.2136 154.789 60.0053C154.792 60.8914 154.723 60.6982 154.101 61.563C152.672 61.7994 150.028 61.5832 149.86 59.8039L150.448 59.244Z"/><path fill="#89E3D9" d="M6.77776 131.078C8.83944 132.131 8.14487 135.495 7.4174 137.281C5.6015 136.157 6.21518 132.816 6.77776 131.078Z"/><path fill="#89E3D9" d="M153.382 220.257C154.483 220.318 154.8 220.457 155.077 221.465C154.475 222.937 153.766 222.784 152.386 223.026C151.606 222.918 151.221 222.832 150.783 222.224L150.96 221.739C151.771 220.934 152.337 220.74 153.382 220.257Z"/><path fill="#89E3D9" d="M71.2651 59.608C72.5481 59.4866 74.7067 59.1238 75.7843 59.698L75.9302 60.2046L75.5007 60.9601C75.3452 61.018 75.189 61.0737 75.0319 61.1271C73.9054 61.5068 72.8572 61.7175 71.7574 61.1698C71.1316 60.4298 71.3034 60.7192 71.2651 59.608Z"/><path fill="#89E3D9" d="M55.0046 232.183L56.3939 232.24C58.1039 233.279 57.4367 234.561 56.9658 236.21C55.2714 235.728 54.4406 233.836 55.0046 232.183Z"/><path fill="#89E3D9" d="M132.471 43.7616C133.743 43.6969 136.35 44.4841 135.532 46.2193C135.192 46.2213 134.852 46.2149 134.512 46.2C133.275 46.1522 132.693 46.1646 131.881 45.2901C131.887 44.3192 131.842 44.644 132.471 43.7616Z"/><path fill="#89E3D9" d="M21.4841 198.747C22.4498 198.733 23.939 198.641 24.6927 199.177C25.0248 199.937 24.9533 199.663 24.6306 200.621C23.533 200.8 22.3873 201.06 21.464 200.297C21.1673 199.406 21.2217 199.728 21.4841 198.747Z"/><path fill="#89E3D9" d="M201.213 198.742C202.172 198.667 203.709 198.484 204.457 199.076C204.672 199.95 204.596 199.708 204.123 200.7C203.125 200.957 202.306 200.983 201.465 200.301C201.023 199.429 201.125 199.762 201.213 198.742Z"/><path fill="#81D6CF" d="M189.274 230.224C190.548 230.101 191.481 230.151 192.16 231.419C196.678 239.87 201.079 248.365 205.982 256.601C206.603 257.645 206.751 259.926 205.963 260.965C203.275 262.329 186.403 264.108 182.409 264.636C178.85 268.123 175.574 271.872 172.119 275.446C169.382 278.277 167.295 282.036 163.372 282.902C162.017 281.807 160.849 278.244 159.904 276.504C157.237 271.592 154.617 266.628 152.037 261.672C151.018 259.716 148.247 255.421 147.735 253.55C148.444 252.779 154.339 249.235 155.004 249.244C163.268 249.355 165.914 252.239 174.022 248.746C183.703 244.575 182.937 235.646 189.274 230.224Z"/><path fill="#89E3D9" d="M187.346 258.607C188.172 258.56 189.001 258.568 189.827 258.632C190.774 258.704 191.789 258.884 192.431 259.642L192.339 260.136C190.936 261.244 189.044 260.999 187.25 260.992C185.354 260.968 183.074 261.247 181.575 260.142L181.571 259.679C183.063 258.501 185.431 258.671 187.346 258.607Z"/><path fill="#89E3D9" d="M153.064 254.242C153.611 254.224 153.958 254.263 154.505 254.316C156.17 255.456 155.123 258.75 154.358 260.176C153.245 259.554 152.743 257.236 152.47 256.067C152.264 255.19 152.6 254.881 153.064 254.242Z"/><path fill="#89E3D9" d="M165.134 274.147C165.818 274.183 166.022 274.157 166.609 274.494C167.481 275.979 166.29 278.363 165.38 279.61C164.853 279.764 164.883 279.764 164.354 279.62L164.026 279.03C163.929 277.534 164.47 275.48 165.134 274.147Z"/><path fill="#89E3D9" d="M157.265 261.819L158.101 262.073C159.872 263.55 158.861 266.43 157.98 268.115L157.705 268.141C157.007 267.512 156.834 264.97 156.67 263.975C156.505 262.976 156.713 262.587 157.265 261.819Z"/><path fill="#81D6CF" d="M35.1647 229.434C40.3416 231.187 43.2018 243.604 48.4026 246.996C50.3383 248.258 50.6611 248.257 52.5696 249.144C57.2391 251.391 62.1714 250.484 67.1808 249.328C68.8215 247.869 77.9769 251.745 77.6536 253.477C76.4781 259.774 69.5738 268.398 67.1948 274.691C66.6581 276.111 63.1368 283.289 63.1461 283.278C60.4447 283.277 58.0339 279.671 56.3065 277.812C52.3373 273.542 48.4589 268.675 43.8009 265.158C42.0353 263.825 37.35 264.095 35.172 263.63C32.4296 263.041 21.0116 261.83 19.4901 260.401C19.2709 259.884 19.0796 259.427 19.1029 258.855C19.1328 258.266 19.2816 257.688 19.5405 257.157C20.2863 255.64 21.7936 254.031 22.5893 252.356C22.9074 251.686 24.1366 249.385 24.4954 248.877C27.2754 244.941 32.2168 232.101 35.1647 229.434Z"/><path fill="#89E3D9" d="M34.8418 258.804C37.092 258.723 43.1394 258.284 44.8111 259.728L44.8369 260.083C44.1999 260.7 43.8175 260.738 42.9632 260.972C41.2429 261.025 33.9454 261.441 33.1771 259.699C33.724 258.987 33.8181 259.143 34.8418 258.804Z"/><path fill="#89E3D9" d="M26.0003 251.613C27.3655 252.144 27.3919 255.089 27.273 256.363C27.2339 256.783 26.7903 256.93 26.4253 257.171C22.9675 256.883 24.9681 253.587 26.0003 251.613Z"/><path fill="#FBFBFB" d="M166.869 41.4585C168.749 38.2078 170.98 26.3254 170.639 22.98C169.748 14.2421 168.951 8.07197 178.752 4.9031C190.401 1.13667 199.2 14.7035 192.534 24.2359C191.092 26.2988 188.769 27.5943 189.277 30.3187C190.497 34.8939 197.678 29.9519 200.522 29.1834C200.967 20.2686 201.771 18.7814 210.919 16.4327C219.083 14.3754 229.143 24.6754 224.327 32.6761C223.547 33.9719 223.348 36.0455 221.912 36.938C216.439 40.3403 218.096 41.8108 218.321 48.1346C220.385 48.3713 223.552 48.9578 225.263 47.6576C225.636 46.7019 226.408 43.9756 227.048 43.1891C231.182 38.1092 234.771 36.5897 240.967 38.7468C250.156 41.9458 251.217 46.5968 248.497 55.4094C246.66 61.3595 239.285 62.0262 234.797 64.8002C233.227 65.7415 230.634 68.7867 229.011 70.0458C226.385 72.0827 211.699 82.3624 211.409 84.6259L211.375 84.8791C211.345 85.1064 211.33 85.3168 211.315 85.5459C207.994 86.1 200.864 87.8271 197.905 85.9209C188.217 79.6795 176.583 73.0749 167.386 66.357C158.829 60.1066 166.935 49.944 166.869 41.4585Z"/><path fill="#525151" d="M178.574 24.2228C179.178 24.1286 179.192 24.0159 179.608 24.2465C182.067 28.0626 184.223 38.8333 187.454 40.3433C191.298 42.1394 205.067 35.0201 209.309 33.4912C210.357 39.9561 210.651 45.3327 211.331 51.7921C218.82 59.2667 224.077 54.7335 232.629 57.0467C230.795 58.7056 227.254 61.0338 225.035 62.8747L212.771 73.066C209.877 75.4282 206.495 78.7064 202.882 79.5987C202.759 79.575 202.636 79.5494 202.514 79.5219C198.888 78.7129 190.212 72.4602 186.564 70.2687C183.049 68.1575 172.656 62.4516 170.756 59.474C170.528 56.7879 172.535 51.7569 173.192 48.7432C174.96 40.6293 176.617 32.271 178.574 24.2228Z"/><path fill="#525151" d="M176.821 16.3356C177.133 15.6443 177.554 14.5919 178.003 14.008C182.603 8.02351 186.049 13.8057 188.979 16.8243C187.007 19.2681 185.878 21.0924 183.111 22.6296C182.093 22.9195 179.945 23.1749 179.608 24.2465C179.192 24.0159 179.178 24.1286 178.574 24.2228C178.541 22.3677 178.336 21.0053 177.897 19.2233L176.821 16.3356Z"/><path fill="#E5E7E3" d="M177.897 19.2233C179.704 21.7213 179.848 22.4765 183.111 22.6296C182.093 22.9195 179.945 23.1749 179.608 24.2465C179.192 24.0159 179.178 24.1286 178.574 24.2228C178.541 22.3677 178.336 21.0053 177.897 19.2233Z"/><defs><linearGradient id="gradient_0" gradientUnits="userSpaceOnUse" x1="241.43872" y1="48.840534" x2="231.22371" y2="52.183578"><stop offset="0" stop-color="#545353"/><stop offset="1" stop-color="#6E6D6F"/></linearGradient></defs><path fill="url(#gradient_0)" d="M234.945 45.5353C237.514 45.3999 239.04 45.7107 241.36 46.7033C241.425 46.8868 241.482 47.0727 241.532 47.2607C242.831 52.0283 242.237 54.5135 237.329 55.6904L234.454 55.9896C233.596 55.2739 232.136 54.0936 231.561 53.1598C229.616 50.0029 232.276 47.0691 234.945 45.5353Z"/><path fill="#525151" d="M211.466 23.2793C215.483 22.8474 217.015 25.6588 219.482 28.421C218.084 30.522 216.685 32.1626 214.57 33.5527C213.696 33.7324 212.195 34.0992 211.333 33.7922C208.671 32.8438 206.872 29.4424 207.822 26.7355C208.448 24.9525 209.872 24.0636 211.466 23.2793Z"/></svg>