<?xml version="1.0" encoding="utf-8" ?><svg xmlns="http://www.w3.org/2000/svg" xmlns:xlink="http://www.w3.org/1999/xlink" width="300" height="300" viewBox="0 0 300 300"><defs><linearGradient id="gradient_0" gradientUnits="userSpaceOnUse" x1="100.55952" y1="122.23695" x2="199.02826" y2="210.62343"><stop offset="0" stop-color="#BDBCBC"/><stop offset="1" stop-color="#E5E5E4"/></linearGradient></defs><path fill="url(#gradient_0)" d="M146.856 89.1049C147.892 88.9958 148.964 89.0216 150.004 89.0123C161.178 88.9127 172.253 92.5805 180.307 100.529C194.193 114.233 197.52 135.861 197.653 154.541C197.827 178.927 191.879 206.016 181.202 228.009C180.112 230.254 178.176 235.105 176.454 236.62C174.938 237.953 156.923 237.361 153.875 237.356C145.135 237.339 132.463 237.817 124.095 237.196C122.091 234.75 120.065 230.846 118.696 227.941C109.721 208.898 104.45 186.593 102.905 165.691C101.338 144.512 103.378 119.058 117.888 102.412C125.298 93.9114 135.79 89.8339 146.856 89.1049Z"/><path fill="#CCCBCB" d="M231.217 107.864C232.435 107.828 233.681 107.747 234.884 107.754C257.975 107.905 278.587 126.797 277.769 150.077C276.644 182.091 254.835 211.49 233.424 233.063C232.33 234.116 230.374 236.031 229.095 236.662L228.943 236.735C228.384 237.009 227.694 237.234 227.066 237.24C217.644 237.343 208.178 237.431 198.758 237.226C197.137 237.191 194.872 236.092 195.445 234.262C196.88 229.685 199.12 225.29 200.761 220.748C210.262 194.447 214.528 165.953 211.779 138.059C211.16 131.764 209.579 125.902 208.351 119.739C208.158 118.771 208.783 117.823 209.416 117.126C214.591 112.35 224.267 108.278 231.217 107.864Z"/><defs><linearGradient id="gradient_1" gradientUnits="userSpaceOnUse" x1="27.782513" y1="128.24692" x2="122.54511" y2="215.28741"><stop offset="0" stop-color="#A9A8A7"/><stop offset="1" stop-color="#D6D6D6"/></linearGradient></defs><path fill="url(#gradient_1)" d="M62.1656 107.858C63.0034 107.82 63.8417 107.793 64.6802 107.778C71.7317 107.664 78.0767 109.498 84.2782 112.778C86.4758 113.96 92.4309 116.638 91.7026 119.7C87.9719 135.384 86.8323 149.252 87.8171 165.445C88.8758 181.921 91.9577 198.205 96.9933 213.929C99.0672 220.436 101.567 226.668 104.323 232.897C104.668 233.676 105.207 235.785 104.234 236.322C102.023 237.541 99.1038 237.362 96.6386 237.39C91.3047 237.365 86.0208 237.363 80.694 237.374C77.5426 237.38 74.5602 237.451 71.4298 237.037C70.591 236.511 68.9571 235.228 68.1847 234.483C47.0031 214.053 24.3225 182.78 22.4218 152.533C21.7126 141.246 25.4879 129.946 33.1315 121.911C40.1292 114.555 51.9788 108.256 62.1656 107.858Z"/><defs><linearGradient id="gradient_2" gradientUnits="userSpaceOnUse" x1="223.82231" y1="315.37186" x2="76.101593" y2="216.24155"><stop offset="0" stop-color="#B6B6B5"/><stop offset="1" stop-color="#E3E3E3"/></linearGradient></defs><path fill="url(#gradient_2)" d="M60.395 250.091C61.9986 249.86 66.0494 249.937 67.8208 249.941L80.9143 249.965L127.828 249.944L202.141 249.944L226.161 249.949C233.102 249.951 242.339 248.912 248.081 253.139C251.577 255.686 253.888 259.544 254.483 263.828C255.78 273.419 248.91 280.85 239.579 281.908C236.23 282.179 231.405 282.044 227.975 282.032L209.886 282.011L149.595 282.022L89.7182 282.029L71.095 282.029C64.5001 282.028 57.3069 282.869 51.7775 278.606C48.3632 275.953 46.1439 272.051 45.6086 267.76C44.5411 258.453 51.3125 251.11 60.395 250.091Z"/><path fill="#CCCBCB" d="M106.375 250.381C127.323 250.211 150.423 249.826 171.292 250.415C170.501 250.628 165.29 250.496 164.125 250.5L151.859 250.465C150.028 250.459 146.88 250.314 145.235 250.637C145.943 250.795 146.035 250.818 146.501 251.366L146.395 251.812C140.437 255.304 121.507 252.992 113.961 252.538C113.399 252.504 112.76 251.887 112.503 251.341L112.692 250.894C113.158 250.754 113.354 250.85 113.87 250.921L114.019 250.64C112.167 250.303 108.663 250.595 106.375 250.381Z"/><path fill="#CCCBCB" d="M105.941 277.863C106.955 277.843 110.457 277.68 111.25 278.184C114.84 280.466 117.719 278.068 122.565 279.624C122.564 280.597 120.967 279.661 120.156 280.631C121.769 281.923 139.737 281.445 143.33 281.575C138.03 281.915 129.187 281.674 123.625 281.694C119.956 281.691 85.3393 281.732 85.1548 281.552C86.9637 281.552 88.7622 281.278 90.4892 280.74L90.703 280.326C90.1807 280.034 89.693 280.087 89.081 280.068L89.096 279.684C93.0721 278.913 96.5296 279.455 99.2212 278.953C100.182 278.009 100.344 277.7 101.705 277.985C102.392 278.895 102.435 279.037 103.506 279.046L103.761 278.17C104.362 277.74 105.065 277.886 105.941 277.863Z"/><path fill="#CCCBCB" d="M149.76 18.6762C150.272 18.7088 150.598 18.9736 150.963 19.3217C160.988 28.8667 170.541 39.0045 180.584 48.523C176.521 52.2472 172.427 56.4822 168.512 60.3967L150.398 78.5591C149.225 78.4313 141.033 69.8264 139.455 68.2486L119.734 48.5114C127.239 40.6446 135.262 33.1264 142.876 25.3528C145.082 23.0999 147.424 20.7796 149.76 18.6762Z"/></svg>