<svg version="1.2" xmlns="http://www.w3.org/2000/svg" viewBox="0 0 47 42" width="47" height="42">
	<style>
		.s0 { fill: #ffffff } 
	</style>
	<path id="シェイプ 714 のコピー" fill-rule="evenodd" class="s0" d="m42.02 12.6c-0.27-0.58-0.94-0.82-1.51-0.56-0.58 0.27-0.83 0.95-0.56 1.51 3.12 6.71 1.71 14.72-3.54 19.97-6.9 6.91-18.14 6.91-25.08 0-3.35-3.34-5.19-7.78-5.19-12.52 0-4.74 1.84-9.18 5.19-12.55 3.34-3.36 7.79-5.2 12.53-5.2q0.02 0 0.02 0c3.79 0 7.42 1.18 10.43 3.38l-1 0.03c-0.63 0.03-1.13 0.54-1.1 1.17 0 0.61 0.51 1.1 1.12 1.1q0 0 0.06-0.03l3.87-0.11q0.03 0 0.06 0 0.2-0.02 0.39-0.11 0.19-0.09 0.33-0.25c0.24-0.23 0.35-0.56 0.31-0.88l-0.11-3.56c-0.02-0.63-0.53-1.12-1.16-1.1-0.63 0.02-1.13 0.54-1.1 1.16l0.02 1.05c-3.47-2.65-7.7-4.1-12.14-4.1q-0.03 0-0.03 0c-5.34 0-10.34 2.09-14.12 5.86-7.81 7.81-7.81 20.52 0 28.28 3.91 3.9 9.05 5.86 14.17 5.86 5.14 0 10.26-1.95 14.12-5.86 5.93-5.9 7.54-14.97 4.02-22.54z"/>
	<path id="24" class="s0" aria-label="24"  d="m15.6 27.7h-2.8l5.8-6.1q0.9-0.9 1.4-1.6 0.5-0.7 0.7-1.2 0.2-0.6 0.2-1.2 0-1.2-0.8-1.9-0.7-0.7-2-0.7-1.2 0-2.1 0.6-0.9 0.6-1.6 1.8l-1.5-1.3q0.9-1.5 2.3-2.3 1.3-0.8 3-0.8 1.5 0 2.5 0.6 1.1 0.6 1.7 1.6 0.6 1 0.6 2.4 0 0.9-0.3 1.7-0.2 0.8-0.8 1.6-0.6 0.8-1.6 1.9zm7.7 1.4h-10.5v-1.3l1.8-0.6h8.7zm3.1-5.5h-2.3l5.8-10.3h2.4zm9.8 1.3h-12.1v-1.3l0.9-0.6h11.2zm-2.3 4.1h-2.1v-10.4h2.1z"/>
</svg>