<?xml version="1.0" encoding="utf-8" ?><svg xmlns="http://www.w3.org/2000/svg" xmlns:xlink="http://www.w3.org/1999/xlink" width="300" height="300" viewBox="0 0 300 300"><path fill="#A3EDE7" d="M196.894 42.1043C198.22 41.9918 199.536 41.9821 200.866 41.9682C220.385 41.5996 239.213 49.1916 253.017 62.9968C263.177 72.9848 270.488 86.2397 274.852 99.753C281.729 121.048 275.9 149.267 260.065 165.337C259.242 163.705 258.11 162.43 256.891 161.093C253.352 157.207 219.364 122.539 217.256 121.765C216.09 121.336 214.938 121.527 213.859 122.078C212.74 122.65 211.983 123.461 211.613 124.677C211.269 125.806 211.336 127.011 211.939 128.039C213.822 131.251 217.547 134.2 220.223 136.863L236.964 153.621C239.765 156.413 242.562 159.231 245.381 162.003C250.448 166.986 256.287 172.205 253.673 180.116C252.598 183.394 250.238 186.094 247.134 187.599C243.798 189.212 240.127 189.395 236.737 187.854C231.24 185.355 216.145 168.617 211.093 163.412C207.581 159.794 203.939 156.296 200.395 152.707C198.549 150.838 194.946 146.452 192.559 145.777C191.583 145.501 190.535 145.755 189.682 146.261C188.443 146.996 187.357 148.525 187.085 149.943C186.859 151.126 187.909 152.578 188.602 153.453C191.325 156.888 195.03 159.983 198.137 163.115L219.476 184.597C221.525 186.655 224.125 189.42 226.276 191.382C237.602 201.508 226.292 219.344 212.478 212.32C208.708 210.402 204.204 205.029 201.125 201.928L182.106 182.73C178.443 179.034 174.647 175.034 170.718 171.658C167.327 168.744 161.285 173.844 164.902 178.024C168.043 181.655 171.473 184.913 174.853 188.318L194.719 208.37C198.907 212.61 204.369 216.053 204.237 222.572C204.097 229.492 195.359 235.223 189.477 231.27C189.032 230.971 188.125 227.139 187.859 226.362C187.052 224.036 185.799 221.889 184.169 220.043C180.586 216.009 176.205 214.185 170.933 213.879C169.518 200.028 162.534 191.04 147.646 191.499C147.617 190.711 147.552 189.925 147.449 189.144C146.597 182.539 143.844 176.817 138.495 172.707C134.407 169.565 128.258 167.513 123.091 168.177C122.094 159.325 120.688 154.188 113.198 148.409C108.284 144.617 103.944 143.6 97.8052 144.343C90.5276 145.791 88.3857 148.533 83.3756 153.558L74.2703 162.715C69.3886 167.628 64.3855 172.512 59.6308 177.552C57.8736 179.415 56.5853 181.954 55.4274 184.219C44.3313 172.321 37.033 166.737 29.2904 151.117C10.0418 112.284 34.7351 68.6565 70.7171 50.8056C88.8922 41.7888 110.149 41.9652 129.168 47.8429C134.048 49.3534 138.527 51.7225 143.321 53.3981C142.455 54.075 141.639 54.8176 140.821 55.558C126.848 68.2163 113.762 81.7842 100.488 95.1468C99.2165 96.4264 97.6852 100.924 97.33 102.675C96.2155 108.108 97.3246 113.761 100.409 118.37C110.37 133.221 139.179 125.412 151.051 117.267C154.581 114.845 157.804 111.928 161.403 109.537C169.16 104.386 177.005 99.3535 184.715 94.1341C186.474 95.421 188.281 96.736 190.082 97.9114C199.467 104.039 211.547 104.305 221.935 100.746C227.29 98.9117 234.556 95.3245 237.201 90.0629C236.9 89.0661 236.356 87.8316 235.952 86.8425C234.729 85.8946 234.316 85.7036 232.895 85.0494C230.284 85.8173 228.306 87.3535 225.988 88.8021C221.312 91.7639 216.008 93.5884 210.5 94.1294C201.898 94.8887 194.199 90.9253 188.277 85.2187C187.119 84.1726 186.037 83.8678 184.55 84.3899C181.067 85.6123 177.648 88.3917 174.551 90.4138C167.955 94.7209 161.392 98.9691 154.843 103.324C150.454 106.243 146.583 109.908 141.769 112.235C136.082 115.117 131.432 116.932 124.988 117.474C120.119 117.882 113.207 117.901 109.291 114.66C104.339 110.559 104.705 103.822 108.884 99.3255C111.292 96.7337 113.689 94.2737 116.174 91.7671C120.352 87.5151 124.571 83.3022 128.828 79.129C140.187 67.9287 149.793 57.3208 164.584 50.6209C175.645 45.6105 184.801 43.1502 196.894 42.1043Z"/><path fill="#A3EDE7" d="M99.2905 153.313C106.118 152.203 112.343 158.277 113.92 164.54C115.57 171.093 109.322 176.11 105.134 180.288L95.8533 189.544C91.6942 193.711 87.3274 198.382 82.8818 202.174C81.6729 203.205 79.8486 203.623 78.3157 203.955C72.7642 204.446 67.5131 200.991 65.0393 196.062C60.614 187.243 67.0618 182.075 72.8577 176.265L82.4869 166.619C85.5433 163.561 88.5826 160.487 91.6751 157.466C94.2042 154.995 95.8471 153.977 99.2905 153.313Z"/><path fill="#A3EDE7" d="M123.844 177.037C129.809 176.734 133.286 179.084 136.608 183.887C139.222 187.667 139.635 191.602 137.277 195.604C136.513 196.896 135.617 198.104 134.602 199.21C133.27 200.685 131.743 202.196 130.299 203.585C122.583 211.01 115.297 218.977 107.4 226.186C106.391 227.108 104.357 227.574 103.022 227.918C96.5146 228.747 89.7799 223.528 88.3311 217.199C86.6636 209.915 92.5322 205.425 97.164 200.779L107.087 190.832C110.223 187.671 113.36 184.491 116.5 181.335C119.089 178.734 120.207 177.761 123.844 177.037Z"/><path fill="#A3EDE7" d="M150.184 200.097C152.539 200.33 154.793 201.175 156.72 202.548C164.463 208.113 162.867 215.729 156.702 221.462C149.017 228.609 142.121 237.097 134.122 243.927C132.526 245.289 130.324 245.725 128.341 246.022C118.982 245.275 112.385 234.611 119.354 227.051C126.663 219.135 134.557 211.704 142.126 204.029C144.95 201.166 146.23 200.539 150.184 200.097Z"/><path fill="#A3EDE7" d="M170.958 222.534C177.027 223.266 182.988 230.423 178.666 235.589C172.337 243.152 164.329 250.437 157.148 257.236C156.285 258.052 154.189 258.513 153.058 258.739C147.198 258.602 141.461 250.523 145.293 246.03C151.783 238.419 159.783 230.942 167.09 224.04C167.967 223.211 169.817 222.752 170.958 222.534Z"/></svg>