<?xml version="1.0" encoding="utf-8" ?><svg xmlns="http://www.w3.org/2000/svg" xmlns:xlink="http://www.w3.org/1999/xlink" width="256" height="256" viewBox="0 0 256 256"><defs><linearGradient id="gradient_0" gradientUnits="userSpaceOnUse" x1="79.414299" y1="100.87762" x2="174.6765" y2="186.72316"><stop offset="0" stop-color="#C4AD50"/><stop offset="1" stop-color="#EEDA75"/></linearGradient></defs><path fill="url(#gradient_0)" d="M127.016 68.593C137.234 68.3133 149.448 72.3693 156.675 79.6979C169.721 92.9256 173.459 113.627 173.559 131.595C173.69 155.308 168.333 179.92 158.687 201.539C157.147 204.729 155.467 208.934 153.266 211.626C152.069 213.09 145.089 212.597 143.192 212.588L128.625 212.559L112.427 212.596C110.607 212.604 102.996 212.986 101.888 211.906C99.6219 209.697 97.6225 205.26 96.2955 202.319C88.1783 184.012 83.2486 164.454 81.719 144.487C80.0021 121.488 82.0212 92.3172 101.622 76.7022C109.319 70.571 117.544 69.2793 127.016 68.593Z"/><defs><linearGradient id="gradient_1" gradientUnits="userSpaceOnUse" x1="233.14424" y1="182.29576" x2="165.4239" y2="116.36391"><stop offset="0" stop-color="#CFB555"/><stop offset="1" stop-color="#EEDB77"/></linearGradient></defs><path fill="url(#gradient_1)" d="M207.187 87.1073C208.654 87.0009 210.126 86.9699 211.597 87.0143C221.186 87.299 234.266 93.4507 240.564 100.437C269.743 132.801 231.651 186.877 207.545 209.327C206.238 210.661 205.073 211.642 203.444 212.549C193.89 212.742 184.161 212.5 174.593 212.53C171.975 212.538 170.584 211.512 171.598 208.761C172.839 205.396 174.362 202.126 175.634 198.727C178.394 191.342 180.733 183.807 182.639 176.157C187.674 156.108 189.131 135.327 186.942 114.771C186.322 109.157 184.795 104.198 183.806 98.7057C183.644 97.8075 184.456 96.3607 185.106 95.7551C190.868 90.388 199.447 87.5491 207.187 87.1073Z"/><defs><linearGradient id="gradient_2" gradientUnits="userSpaceOnUse" x1="8.8475227" y1="107.00517" x2="100.79137" y2="191.32808"><stop offset="0" stop-color="#AE963D"/><stop offset="1" stop-color="#DFCA67"/></linearGradient></defs><path fill="url(#gradient_2)" d="M42.3543 87.1032C46.3445 86.7365 51.7833 87.3449 55.6257 88.4731C58.8743 89.4271 71.9096 94.4816 70.8563 98.7883C65.6065 120.253 65.6957 142.832 69.6831 164.548C71.9207 176.944 75.3538 189.093 79.9344 200.827C81.0957 203.81 84.3339 208.987 83.4153 211.719C82.8493 212.196 80.4382 212.679 79.7803 212.595C74.9066 211.977 53.7168 213.571 50.3989 212.096C22.676 188.309 -21.7174 123.898 22.0966 94.1805C28.138 90.0827 35.0691 87.6471 42.3543 87.1032Z"/><path fill="#BCA448" d="M127.227 0.439663C128.495 1.22399 134.734 7.59206 136.248 9.10422C143.077 16.004 149.964 22.8472 156.906 29.6332C155.324 31.6861 150.353 36.2961 148.363 38.3385C141.584 45.2955 134.265 52.0762 127.584 59.0965C126.834 58.8397 100.278 32.0968 97.8595 29.6628C102.698 24.3411 107.772 19.3405 112.862 14.2633C117.539 9.59793 122.179 4.69915 127.227 0.439663Z"/><defs><linearGradient id="gradient_3" gradientUnits="userSpaceOnUse" x1="193.99655" y1="290.61075" x2="60.552292" y2="189.98758"><stop offset="0" stop-color="#C1A444"/><stop offset="1" stop-color="#EBD876"/></linearGradient></defs><path fill="url(#gradient_3)" d="M38.0918 256C32.9157 253.399 28.9352 251.55 26.9785 245.613C25.6252 241.456 25.9784 236.932 27.9603 233.035C30.6625 227.683 35.7681 225.243 41.5472 225.051C46.1986 224.897 50.898 224.96 55.5497 224.959L76.1409 224.955L130.888 224.955L184.778 224.95C194.04 224.95 203.294 224.894 212.568 225.017C219.835 225.112 225.736 228.744 227.964 235.803C230.645 244.293 226.5 251.434 218.75 254.989C217.988 255.338 217.241 255.615 216.481 256L38.0918 256Z"/></svg>