<svg version="1.2" xmlns="http://www.w3.org/2000/svg" viewBox="0 0 21 46" width="21" height="46">
	<style>
		.s0 { fill: #ffffff } 
	</style>
	<path id="シェイプ 756 のコピー 2" fill-rule="evenodd" class="s0" d="m10.5 35.37c-1.66 0-3.01-1.34-3.01-3 0-2.05 1.76-4.4 2.82-5.62l0.19-0.22 0.19 0.22c1.05 1.22 2.82 3.57 2.82 5.62 0 1.66-1.35 3-3.01 3z"/>
	<path id="シェイプ 756" class="s0" d="m18.78 15.62l-3.61-4.98v-3.47h0.45c0.84 0 1.53-0.69 1.53-1.53v-3.11c0-0.84-0.69-1.53-1.53-1.53h-10.24c-0.84 0-1.53 0.69-1.53 1.53v3.11c0 0.84 0.69 1.53 1.53 1.53h0.45v3.47l-3.61 4.98c-0.53 0.73-0.8 1.58-0.8 2.47v24.11c0 1.54 1.25 2.8 2.8 2.8h12.56c1.55 0 2.8-1.26 2.8-2.8v-24.11c0-0.89-0.27-1.74-0.8-2.47zm-13.26-12.95h9.96v2.83h-1.14-7.68-1.14zm7.99 4.5v2.86h-6.02v-2.86zm-9.93 9.43l3.55-4.9h6.76l3.55 4.9q0.48 0.67 0.48 1.5v3.89h-14.83v-3.89q0.01-0.83 0.49-1.5zm13.21 26.74h-12.56c-0.63 0-1.14-0.51-1.14-1.13v-18.55h14.83v18.55c0 0.62-0.5 1.13-1.13 1.13z"/>
</svg>