<svg version="1.2" xmlns="http://www.w3.org/2000/svg" viewBox="0 0 54 40" width="54" height="40">
	<style>
		.s0 { fill: #ffffff } 
	</style>
	<path id="シェイプ 571" fill-rule="evenodd" class="s0" d="m11.48 38.82q-1.63 0.01-3.25-0.02-0.02 0-0.05 0c-3.12 0-5.72-2.34-6.06-5.47-0.13-1.36-0.09-2.76-0.06-4.12q0.03-0.95 0.04-1.9c-0.14-2.06-0.12-4.17 0.08-6.24 0.54-2.95 3.06-5.05 6.01-5.05q0.05 0 0.09 0c2.56-0.02 5.16-0.01 7.67 0q0.05-0.09 0.11-0.17 3.27-4.42 6.55-8.84 0.11-0.17 0.29-0.27-0.01-0.16-0.01-0.31c0.01-2.52 2.05-4.57 4.55-4.58q0.01 0 0.02 0c1.21 0 2.35 0.47 3.21 1.33 0.87 0.87 1.35 2.02 1.35 3.25q0 0.15-0.02 0.31 0.19 0.1 0.31 0.27l6.56 8.85q0.06 0.08 0.09 0.16h7.3c2.2-0.13 4.37 0.94 5.63 2.79v0.01c1.05 1.64 1 3.62 0.96 5.53q-0.02 0.57-0.02 1.12v2.34q0 2.35 0 4.7c0.04 3.45-2.67 6.24-6.04 6.29h-28.86q-1.61 0-3.23 0.01-1.59 0.01-3.22 0.01zm-2.81-20.96q-1.56 0-2.92 0.78c-1.83 1.26-1.81 3.23-1.79 5.32q0.01 0.32 0.01 0.65v7.33c-0.07 0.89 0.07 1.79 0.39 2.6 0.69 1.44 2.18 2.38 3.78 2.38q0.78 0.02 1.55 0.01 0.39 0 0.77-0.01h36.33c1.79-0.01 3.38-1.17 3.96-2.88q0.28-1.17 0.19-2.36v-3.42q0.01-1.02 0.01-2.04c0.01-1.35 0.02-2.74-0.01-4.1v-0.13c-0.08-2.33-2.04-4.18-4.35-4.09q-1.09 0-2.17 0h-1.09-33.93q-0.37-0.04-0.73-0.04zm9.59-1.84h18.4q-2.68-3.61-5.34-7.21c-0.82 1.35-2.26 2.17-3.86 2.18-1.59-0.01-3.04-0.83-3.87-2.17q-2.67 3.61-5.33 7.2zm9.08-12.28c-1.42 0.08-2.56 1.26-2.58 2.69v0.09c0.03 0.72 0.33 1.38 0.85 1.87 0.52 0.49 1.19 0.75 1.91 0.72 0.72-0.03 1.38-0.33 1.86-0.85 0.49-0.53 0.74-1.21 0.72-1.93-0.03-0.71-0.33-1.38-0.85-1.87-0.52-0.48-1.2-0.75-1.91-0.72z"/>
	<path id="Gym" class="s0" aria-label="Gym"  d="m18.1 31.1q-0.9 0-1.7-0.3-0.8-0.4-1.4-0.9-0.6-0.6-0.9-1.4-0.4-0.8-0.4-1.7 0-1 0.4-1.7 0.3-0.8 0.9-1.4 0.6-0.6 1.4-0.9 0.8-0.4 1.8-0.4 1 0 1.9 0.4 0.9 0.4 1.5 1.1l-1.1 1.1q-0.4-0.5-1-0.8-0.6-0.3-1.3-0.3-0.8 0-1.5 0.4-0.6 0.4-1 1-0.3 0.6-0.3 1.5 0 0.8 0.3 1.4 0.4 0.7 1 1 0.6 0.4 1.4 0.4 0.8 0 1.3-0.3 0.6-0.3 0.9-0.9 0.3-0.5 0.3-1.4l1.1 0.8-3.7-0.1v-1.4h4.3v0.3q0 1.5-0.5 2.5-0.6 1-1.5 1.5-1 0.5-2.2 0.5zm9-0.1h-1.1l-2.5-5.8h1.8l1.6 4.5h-0.6l1.7-4.5h1.7zm-1 2.4h-1.7l1.8-3.8 0.9 1.4zm6.2-2.4h-1.6v-5.8h1.6zm3.8 0h-1.6v-3.5q0-0.5-0.3-0.7-0.3-0.3-0.8-0.3-0.3 0-0.6 0.1-0.2 0.1-0.4 0.4-0.1 0.2-0.1 0.5l-0.6-0.3q0-0.6 0.3-1.1 0.3-0.5 0.8-0.8 0.5-0.2 1.1-0.2 0.6 0 1.1 0.2 0.5 0.3 0.8 0.8 0.3 0.5 0.3 1.1zm3.8 0h-1.6v-3.4q0-0.5-0.3-0.8-0.3-0.2-0.8-0.2-0.3 0-0.6 0.1-0.2 0.1-0.4 0.4-0.1 0.2-0.1 0.5l-0.9-0.2q0-0.7 0.4-1.2 0.3-0.5 0.8-0.8 0.6-0.3 1.2-0.3 0.7 0 1.2 0.3 0.5 0.3 0.8 0.8 0.3 0.5 0.3 1.2z"/>
</svg>