<svg version="1.2" xmlns="http://www.w3.org/2000/svg" viewBox="0 0 69 62" width="69" height="62">
	<style>
		.s0 { fill: #ffffff } 
		.s1 { fill: #81d8d0 } 
	</style>
	<path id="シェイプ 714 のコピー" fill-rule="evenodd" class="s0" d="m62.09 18.41c-0.41-0.87-1.42-1.24-2.26-0.84-0.88 0.41-1.25 1.42-0.84 2.26 4.68 10.06 2.56 22.07-5.32 29.95-10.33 10.36-27.2 10.36-37.6 0-5.01-5.02-7.77-11.68-7.77-18.78 0-7.1 2.76-13.76 7.77-18.81 5.02-5.05 11.68-7.81 18.78-7.81q0.05 0 0.04 0c5.69 0 11.12 1.78 15.63 5.08l-1.5 0.04c-0.94 0.04-1.68 0.81-1.65 1.75 0 0.91 0.78 1.65 1.69 1.65q0 0.01 0.1-0.03l5.78-0.17q0.05-0.01 0.09-0.01 0.31-0.03 0.59-0.17 0.28-0.13 0.5-0.36c0.36-0.36 0.52-0.85 0.47-1.33l-0.16-5.34c-0.04-0.94-0.81-1.68-1.76-1.65-0.94 0.04-1.68 0.81-1.64 1.75l0.04 1.57c-5.22-3.98-11.56-6.14-18.22-6.14q-0.04 0-0.03 0c-8.01 0-15.51 3.13-21.17 8.78-11.71 11.72-11.71 30.76 0 42.4 5.86 5.85 13.56 8.78 21.24 8.78 7.7 0 15.38-2.92 21.17-8.79 8.89-8.84 11.31-22.43 6.03-33.78z"/>
	<path id="24" class="s1" aria-label="24"  d="m22.4 41l-4.1 0.1 8.7-9.2q1.3-1.4 2-2.4 0.8-1 1.1-1.8 0.3-0.9 0.3-1.8 0-1.8-1.2-2.8-1.1-1.1-2.9-1.1-1.8 0-3.2 0.9-1.3 0.9-2.4 2.7l-2.2-1.9q1.3-2.3 3.3-3.4 2-1.2 4.6-1.2 2.2 0 3.8 0.8 1.6 0.9 2.5 2.4 0.9 1.5 0.9 3.6 0 1.4-0.4 2.6-0.4 1.1-1.3 2.4-0.8 1.2-2.4 2.8zm11.6 2h-15.8v-1.9l2.7-0.9h13.1zm4.7-8.1h-3.5l8.6-15.5h3.6zm14.7 2h-18.1v-2l1.4-0.9h16.7zm-3.4 6.1h-3.1v-15.5h3.1z"/>
</svg>