<svg version="1.2" xmlns="http://www.w3.org/2000/svg" viewBox="0 0 445 82" width="445" height="82">
	<style>
		.s0 { fill: #81d8d0 } 
		.s1 { fill: #231815 } 
		.s2 { fill: #ffffff } 
	</style>
	<g id="logo">
		<path id="シェイプ 1513" fill-rule="evenodd" class="s0" d="m72.39 48.4l-31.46 32.17-31.46-32.16c-7.51-7.68-7.51-20.13 0-27.82 7.51-7.69 19.69-7.69 27.21 0l4.25 4.34 4.25-4.34c7.52-7.69 19.69-7.69 27.21 0 7.51 7.69 7.51 20.14 0 27.81zm-3.81-0.64c0-1.99-1.58-3.61-3.53-3.61-1.47 0-2.73 0.92-3.26 2.22l-11.55-0.01-2.3-7.13c-0.22-0.65-0.83-1.08-1.5-1.04-0.67 0.04-1.23 0.53-1.37 1.21l-4.15 20.19-5.75-31.94c-0.12-0.69-0.68-1.2-1.36-1.24-0.69-0.05-1.31 0.38-1.52 1.05l-5.97 18.91h-5.84c-0.54-1.3-1.79-2.22-3.26-2.22-1.95 0-3.53 1.62-3.53 3.61 0 2 1.58 3.62 3.53 3.62 1.37 0 2.55-0.81 3.13-1.98h7.06c0.64 0 1.21-0.42 1.41-1.05l4.49-14.22 6.06 33.61c0.12 0.71 0.73 1.24 1.44 1.25h0.02c0.7 0 1.31-0.51 1.45-1.21l4.56-22.23 0.91 2.81c0.21 0.63 0.78 1.05 1.42 1.05h12.75c0.58 1.16 1.76 1.97 3.13 1.97 1.95 0 3.53-1.62 3.53-3.62zm135.7 20.07q1.4 4.04 2.02 5.46h-12.29q-0.3-2.26-0.96-4.86l-0.84-3.08h-11.3l-0.83 3.08q-0.71 2.71-0.97 4.86h-12.29q0.67-1.53 2.02-5.46l9.35-27.18q1.18-3.39 1.41-4.96h13.84q0.3 1.63 1.45 4.96zm-14.54-11.26l-3.19-11.72-3.22 11.72zm64.87 9.54q0 4.22 0.34 7.18h-10.83q0.35-2.77 0.35-7.18v-8.59q0-2.76-1.1-3.85-0.77-0.78-2.08-0.78-1.74 0-2.96 1.42-0.58 0.69-0.9 1.44-0.32 0.69-0.64 1.68v8.68q0 4.13 0.34 7.18h-10.83q0.35-2.81 0.35-7.18v-8.59q0-2.54-0.73-3.59-0.71-1.04-2.23-1.04-1.57 0-2.75 1.06-0.81 0.71-1.38 1.74-0.57 1.03-0.57 1.78v8.64q0 4.28 0.34 7.18h-10.74q0.34-3.05 0.34-7.18v-13.48q0-4.9-0.34-7.18h10.4v3.04q1.01-1.55 2.9-2.56 2.51-1.31 5.72-1.31 3.45 0 5.45 1.35 0.86 0.58 1.41 1.31 0.32 0.45 0.82 1.4 1.37-1.57 2.29-2.19 2.85-1.92 7.08-1.92 4.91 0 7.29 2.43 2.66 2.71 2.66 8.19zm32.72 0.5q0 4.1 0.3 6.68h-10.36v-2.47q-1.33 1.51-2.55 2.06-2.55 1.14-6.07 1.14-4.56 0-7.14-1.89-3.43-2.53-3.43-7.24 0-2.97 1.4-4.88 1.13-1.51 3.17-2.5 1.37-0.66 3.4-1.16 2.02-0.49 4-0.64 3.13-0.26 7.22-0.35v-1.18q0-1.12-0.66-1.76-0.95-0.93-2.85-0.93-2.21 0-3.37 1.29-0.49 0.56-0.9 1.72l-9.95-1.54q0.79-2.3 1.59-3.38 1.88-2.6 5.31-3.8 3.07-1.1 7.83-1.1 4.33 0 7.7 1.23 1.61 0.55 2.96 1.89 2.4 2.38 2.4 6.88zm-10.06-5.25q-3.99 0.13-5.55 0.52-2.12 0.51-2.83 1.48-0.45 0.62-0.45 1.48 0 1.08 0.64 1.7 0.88 0.86 2.62 0.86 2.66 0 4.42-1.74 1.15-1.16 1.15-2.58zm31.18 3.16q4.4 0 7.16-0.3v9.37q-2.55-0.3-7.2-0.3h-11.5q-4.69 0-6.28 0.13v-7.98q1.91-1.84 3.99-4.04l6.78-7.39h-2.77q-4.46 0-7.16 0.3v-9.16q3 0.3 7.16 0.3h9.74q4.88 0 6.45-0.13v7.64q-2.7 2.68-3.99 4.08l-6.95 7.48zm72.29 1.59q0 4.28 0.34 7.18h-10.83q0.35-3.01 0.35-7.18v-8.6q-0.01-4.62-3.31-4.62-2.16 0-3.88 1.76-0.9 0.93-1.74 2.78v8.68q0 3.83 0.35 7.18h-10.74q0.34-2.88 0.34-7.18v-13.48q-0.02-4.51-0.34-7.18h10.39v3.03q1.46-1.39 2.47-2 3.09-1.87 6.84-1.87 4.53 0 7.1 2.54 1.18 1.18 1.74 2.69 0.92 2.41 0.92 5.26zm33.13-4.12h-19.77q0.17 1.18 0.43 1.78 1.17 2.84 4.52 2.84 2.36 0 3.75-1.12 0.6-0.49 0.95-1.1 0.19-0.36 0.45-1.09l9.17 2.47q-1.13 2.47-1.97 3.55-1.74 2.25-4.24 3.5-3.33 1.68-7.85 1.68-5.79 0-9.52-2.71-2.64-1.93-4.08-4.77-1.67-3.36-1.67-7.63 0-4.91 2.17-8.45 1.99-3.29 5.36-5.01 3.28-1.66 7.44-1.66 6.32 0 10.2 3.72 4.14 3.98 4.51 11.57 0.04 0.51 0.04 0.84 0.04 1.05 0.11 1.59zm-10.02-6.17q-0.28-1.34-0.96-2.13-1.35-1.53-3.82-1.53-2.59 0-4.01 1.79-0.54 0.64-0.88 1.87zm39.97 8.7q0 3.9-2.36 6.22-1.43 1.41-3.15 2.04-3.71 1.31-8.17 1.31-2.44 0-4.9-0.42-2.45-0.42-4-1.11-3.11-1.35-4.52-4.4-0.54-1.14-0.84-3.23l10.36-1.09q0.13 1.48 0.94 2.27 1.1 1.06 3.41 1.06 3.35 0 3.35-1.92 0-0.92-0.78-1.35-0.55-0.3-1.48-0.52-0.23-0.04-1.95-0.34-3.08-0.54-5.64-1.16-3.96-0.95-5.61-3.27-1.51-2.08-1.5-5.05 0-3.48 2.18-5.63 1.46-1.42 3.24-2.09 3.41-1.24 7.53-1.24 6.69 0 9.99 2.83 1.35 1.19 2.06 2.65 0.43 0.86 0.92 2.66l-10.12 1.01q-0.05-1.07-0.41-1.59-0.69-0.96-2.77-0.96-1.73 0-2.48 0.73-0.43 0.45-0.43 1.03 0 0.58 0.79 1.03 0.52 0.3 1.27 0.49 0.19 0.05 1.52 0.31 0.88 0.17 4.48 0.98 3.62 0.82 5.38 1.87 1.78 1.08 2.64 2.54 1.05 1.76 1.05 4.34zm-95.53-5.12c0 8.33-6.89 15.08-15.39 15.08-8.51 0-15.4-6.75-15.4-15.08 0-8.33 6.89-15.08 15.4-15.08 8.5 0 15.39 6.75 15.39 15.08zm-4.71-3.8h-6.97v-7.13h-7.43v7.13h-6.97v7.6h6.97v7.12h7.43v-7.12h6.97z"/>
		<path id="シェイプ 1513 のコピー" fill-rule="evenodd" class="s1" d="m89.56 73.22v-37.53h16.12c11.83 0 19.17 5.63 19.17 17.98 0 14.13-7.7 19.55-19.48 19.55zm12.04-8.75h2.55c5.6 0 8.66-3.03 8.66-10.12 0-7.82-2.49-9.9-8.92-9.9h-2.29zm26.97-18.56h9.64v5.52h0.1c1.48-4.27 4.08-6.3 8.21-6.3 0.46 0 0.92 0.1 1.37 0.15v10.85c-0.71-0.11-1.47-0.32-2.19-0.32-4.33 0-6.52 2.09-6.52 7.98v9.44h-10.61zm23.05 27.31v-10.74h10.81v10.74z"/>
		<path id="[提携医療機関]  東京銀座 NEW AGE CLINIC" class="s2" aria-label="[提携医療機関]  東京銀座 NEW AGE CLINIC"  d="m142.4 15.8h-2.9v-15.1h2.9v1.1h-1.6v12.9h1.6zm6.9-1.2q-0.2-0.2-0.6-0.4-0.4-0.2-0.6-0.3 0.4-0.4 0.9-1 0.4-0.6 0.7-1.3 0.4-0.8 0.7-1.5 0.2-0.8 0.3-1.4l1.3 0.3q-0.1 0.9-0.4 1.8 0.2 0.5 0.6 0.9 0.4 0.3 0.8 0.6v-4.2h-3.5v-1.3h8.8v1.3h-3.9v1.5h3.2v1.3h-3.2v1.9q0.4 0.1 0.7 0.1 0.4 0.1 0.7 0.1 1 0 1.7-0.1 0.7 0 1.1-0.1-0.1 0.2-0.1 0.5-0.1 0.2-0.1 0.5-0.1 0.3-0.1 0.5h-2.5q-1.7 0-2.8-0.5-1.2-0.6-2-1.8-0.7 1.6-1.7 2.6zm7.9-8.8h-7v-5.3h7zm-11.4 8.7h-1.2q0-0.3-0.1-0.8-0.1-0.4-0.2-0.6h1.1q0.4 0 0.5-0.2 0.1-0.1 0.1-0.4v-3.2q-0.6 0.2-1.2 0.4-0.6 0.2-0.8 0.3l-0.4-1.5q0.4-0.1 1.1-0.3 0.6-0.2 1.3-0.4v-3.2h-2.2v-1.3h2.2v-3.3h1.5v3.3h1.5v1.3h-1.5v2.7q0.5-0.2 0.9-0.4 0.5-0.1 0.7-0.2v1.3q-0.2 0.1-0.7 0.3-0.4 0.2-0.9 0.4v4.4q0 0.7-0.5 1.1-0.4 0.3-1.2 0.3zm5.8-13v1.1h4.2v-1.1zm0 2.1v1h4.3v-1zm10 10.9h-1.2q0-0.3-0.1-0.7-0.1-0.5-0.2-0.7h1.1q0.4 0 0.5-0.1 0.1-0.1 0.1-0.5v-3.4q-0.6 0.2-1.1 0.4-0.4 0.2-0.7 0.2l-0.3-1.4q0.3-0.1 0.9-0.3 0.6-0.2 1.2-0.4v-3.4h-1.9v-1.3h1.9v-2.9h1.4v2.9h1.7v1q0.4-0.6 0.8-1.4 0.4-0.7 0.7-1.4 0.3-0.7 0.4-1.2l1.3 0.2q-0.1 0.4-0.3 0.8-0.1 0.4-0.3 0.9h2q0.2-0.5 0.4-1 0.2-0.5 0.3-0.8l1.4 0.2q-0.1 0.3-0.4 0.8-0.2 0.4-0.3 0.8h3.1v1h-3.3v0.8h2.8v0.8h-2.8v0.9h2.8v0.9h-2.8v0.9h3.6v1h-8.4v-3.5q-0.4 0.6-0.9 1.1-0.1-0.1-0.3-0.2-0.2-0.2-0.4-0.3-0.2-0.2-0.3-0.2 0.1-0.2 0.3-0.4 0.2-0.2 0.4-0.4h-1.5v2.9q0.6-0.2 1.1-0.4 0.4-0.2 0.7-0.3v1.4q-0.3 0.1-0.7 0.3-0.5 0.2-1.1 0.4v4.6q0 0.7-0.4 1.1-0.4 0.3-1.2 0.3zm3.2 0.1q-0.1-0.2-0.4-0.6-0.2-0.3-0.4-0.5 1.5-0.5 2.3-1.3 0.8-0.9 1.2-2.1h-2.7v-1.2h7.4q0 0.1-0.1 0.3 0 0.2-0.1 0.5-0.1 0.3-0.2 0.5 0 0.2-0.1 0.3h2.4q-0.1 1.3-0.3 2.1-0.2 0.8-0.5 1.2-0.2 0.4-0.7 0.6-0.4 0.1-1.1 0.1h-1.5q0-0.3-0.1-0.7-0.1-0.4-0.2-0.6h1.4q0.5 0 0.8-0.1 0.2-0.1 0.4-0.5 0.1-0.3 0.2-1.1h-2.6q0.1 0 0.2-0.4 0.1-0.3 0.2-0.6 0.1-0.3 0.1-0.4h-1.5q-0.4 1.5-1.3 2.8-1 1.2-2.8 1.7zm2.5-10.2v0.9h2.1v-0.9zm0 1.8v0.9h2.1v-0.9zm0-3.4v0.8h2.2v-0.8zm22.9 11.3h-13.6v-13.5h13.5v1.3h-12.1v10.8h12.2zm-10.9-1.7q0-0.2-0.1-0.4-0.1-0.3-0.3-0.5-0.1-0.2-0.2-0.3 1.8-0.4 2.8-1.1 1.1-0.7 1.5-1.9h-4.3v-1.2h4.6q0.1-0.3 0.1-0.5 0-0.2 0-0.5v-1h-2.2q-0.5 0.9-1.3 1.6-0.1-0.1-0.3-0.3-0.2-0.1-0.5-0.3-0.2-0.1-0.3-0.2 0.5-0.4 1-1.1 0.5-0.6 0.8-1.4 0.4-0.7 0.6-1.3l1.3 0.4q-0.2 0.7-0.5 1.4h6.7v1.2h-3.9v1q0 0.2 0 0.5 0 0.2-0.1 0.5h4.9v1.2h-4.5q0.7 1.1 1.7 1.8 1.1 0.7 2.6 1.1-0.1 0.1-0.3 0.4-0.1 0.2-0.2 0.5-0.2 0.3-0.2 0.4-1.5-0.4-2.6-1.3-1.2-0.8-1.9-2-0.6 1.2-1.8 2-1.2 0.8-3.1 1.3zm20.6 2.2h-1q0-0.3-0.1-0.6-0.1-0.4-0.1-0.6h0.9q0.3 0 0.5-0.1 0.1-0.1 0.1-0.4v-1.8h-2.6v-3q-0.4 0.3-0.7 0.5-0.4 0.3-0.8 0.5-0.1-0.2-0.3-0.4-0.2-0.3-0.4-0.4-0.2 1.9-0.8 3.4-0.5 1.5-1.5 2.6-0.2-0.1-0.6-0.3-0.3-0.3-0.6-0.4 1-0.9 1.5-2.2 0.5-1.3 0.6-2.9-0.4 0.2-1 0.5-0.6 0.3-1 0.5l-0.4-1.4q0.3-0.1 0.8-0.3 0.4-0.2 0.9-0.4 0.5-0.2 0.8-0.4v-5.6h5.2v-1.4h1.4v1.4h5.4v1.2h-10.7v4q0 0.4 0 0.8 0 0.4 0 0.8 1.1-0.6 1.9-1.4-0.3-0.2-0.6-0.5-0.3-0.2-0.6-0.4l0.7-0.8q0.3 0.2 0.6 0.4 0.4 0.3 0.7 0.6 0.2-0.3 0.4-0.6 0.2-0.3 0.4-0.6h-3.1v-1.1h3.7q0.1-0.3 0.2-0.6 0.1-0.3 0.2-0.6l1.2 0.2q0 0.3-0.1 0.5-0.1 0.2-0.2 0.5h5.3v1.1h-3.7q0.3 0.3 0.6 0.6 0.3 0.4 0.6 0.6 0.6-0.5 1.1-1.1l0.9 0.6q-0.2 0.3-0.5 0.6-0.3 0.3-0.6 0.6 1 0.7 2.3 1.2-0.2 0.1-0.5 0.4-0.2 0.4-0.3 0.6-0.5-0.2-1-0.5-0.5-0.2-0.9-0.5v3.1h-2.6v2.1q0 1.4-1.6 1.4zm5.7-0.3q-0.9-0.3-1.7-0.9-0.9-0.6-1.5-1.2l0.9-0.8q0.6 0.5 1.4 1 0.9 0.6 1.6 0.9-0.2 0.1-0.4 0.5-0.3 0.4-0.3 0.5zm-9.5 0q-0.1-0.1-0.2-0.3-0.1-0.2-0.3-0.4-0.1-0.2-0.3-0.3 0.8-0.4 1.6-0.9 0.9-0.5 1.4-1l0.9 0.8q-0.6 0.6-1.4 1.2-0.9 0.6-1.7 0.9zm-3.2-8q-0.1-0.3-0.4-0.8-0.2-0.5-0.5-0.9-0.2-0.5-0.4-0.8l1.1-0.6q0.2 0.3 0.4 0.7 0.3 0.5 0.5 1 0.3 0.4 0.4 0.8-0.1 0.1-0.3 0.2-0.2 0.1-0.5 0.2-0.2 0.1-0.3 0.2zm6.2 0.4h3.4q-0.9-0.8-1.5-1.8h-0.7q-0.2 0.5-0.5 0.9-0.3 0.5-0.7 0.9zm-0.1 2.6v0.8h3.7v-0.8zm0-1.6v0.7h3.8v-0.7zm12.2 6.8h-1.2v-6.8q-0.4 0.8-0.8 1.5-0.3 0.7-0.7 1.3-0.2-0.2-0.6-0.4-0.3-0.2-0.5-0.3 0.4-0.4 0.8-1.1 0.4-0.6 0.7-1.4 0.3-0.7 0.6-1.4 0.3-0.7 0.4-1.2h-1.9v-1.2h2v-3.3h1.2v3.3h1.4v1.2h-1.4v1.2q0.2 0.4 0.7 1.1 0.4 0.6 0.9 1.1v-0.5h4.1q0-0.2-0.1-0.4 0-0.2 0-0.4-0.2 0.1-0.5 0.2-0.3 0.1-0.5 0.2 0-0.2-0.1-0.3 0-0.2-0.1-0.4-0.3 0.1-0.8 0.2-0.4 0-0.9 0.1-0.5 0.1-0.9 0.1-0.4 0.1-0.6 0.1l-0.3-1.1h0.4q0.3-0.3 0.6-0.7 0.3-0.4 0.6-0.9-0.3-0.2-0.7-0.6-0.4-0.3-0.8-0.7-0.3-0.3-0.6-0.4l0.7-0.9q0.2 0.1 0.3 0.3 0.2 0.1 0.3 0.2 0.3-0.4 0.7-1 0.4-0.5 0.5-1l1 0.5q-0.1 0.3-0.4 0.7-0.2 0.4-0.5 0.8-0.3 0.3-0.5 0.6 0.2 0.2 0.3 0.3 0.2 0.2 0.3 0.3 0.3-0.4 0.5-0.8 0.3-0.4 0.4-0.7l1 0.6q-0.2 0.4-0.6 1-0.4 0.5-0.9 1.2-0.4 0.6-0.8 1.1 0.3-0.1 0.7-0.1 0.3 0 0.6-0.1-0.1-0.2-0.2-0.4-0.1-0.1-0.1-0.3l0.9-0.4q0.3 0.4 0.5 1.1 0.3 0.6 0.5 1.1-0.3-1.5-0.4-3.1-0.1-1.7 0-3.5h1.2q0 0.6 0 1.1 0 0.5 0 1l0.3-0.5q0.2 0.1 0.3 0.2 0.1 0.1 0.3 0.2 0.3-0.4 0.6-1 0.3-0.5 0.5-1l1 0.5q-0.2 0.4-0.6 1-0.4 0.6-0.7 1 0.2 0.1 0.3 0.3 0.2 0.1 0.3 0.2 0.4-0.5 0.7-1 0.2-0.5 0.4-0.8l0.9 0.6q-0.2 0.4-0.6 0.9-0.4 0.6-0.8 1.3-0.5 0.6-0.9 1.1 0.4-0.1 0.8-0.1 0.3-0.1 0.6-0.1-0.2-0.4-0.4-0.7l1-0.3q0.2 0.2 0.4 0.7 0.2 0.4 0.4 0.8 0.2 0.4 0.3 0.7-0.2 0-0.5 0.2-0.3 0.1-0.5 0.2 0-0.1-0.1-0.3-0.1-0.2-0.2-0.4-0.3 0-0.7 0.1-0.4 0.1-0.8 0.2 0.2 0.2 0.6 0.4 0.3 0.3 0.5 0.5l-0.4 0.5h1.9v1h-4q0.1 0.6 0.3 1 0.2 0.5 0.4 1 0.3-0.4 0.6-0.8 0.3-0.4 0.5-0.8l1 0.6q-0.3 0.6-0.7 1.1-0.4 0.5-0.8 0.9 0.6 1.1 1.5 1.6 0.1-0.4 0.3-0.9 0.1-0.5 0.2-0.9 0.1 0.1 0.3 0.2 0.2 0.1 0.4 0.2 0.3 0.1 0.4 0.1-0.1 0.6-0.4 1.3-0.2 0.6-0.4 1-0.1 0.3-0.5 0.4-0.4 0.1-0.7-0.1-0.6-0.3-1.1-0.8-0.5-0.5-1-1.2-1.4 1.1-3.1 1.9-0.1-0.2-0.3-0.5-0.2-0.4-0.4-0.6 0.9-0.2 1.7-0.7 0.8-0.5 1.5-1.1-0.6-1.2-1-2.9h-2q0 0.3-0.1 0.6 0 0.3-0.1 0.6 0.5 0.3 1.1 0.7 0.5 0.3 0.9 0.6-0.1 0.1-0.2 0.3-0.2 0.2-0.3 0.4-0.1 0.2-0.2 0.3-0.3-0.3-0.7-0.6-0.4-0.3-0.8-0.6-0.3 1-0.8 1.9-0.6 0.9-1.4 1.5-0.1-0.2-0.4-0.4-0.3-0.3-0.5-0.4 1.1-0.9 1.7-2.1 0.5-1.2 0.5-2.8h-1.1q-0.1 0.2-0.3 0.4-0.2 0.1-0.2 0.2-0.3-0.3-0.6-0.7-0.3-0.4-0.5-0.8zm7-6.9h1.6q-0.4-0.5-0.9-0.8l0.6-0.5q-0.4 0-0.7 0.1-0.4 0-0.6 0.1l-0.3-1.1q0.1 0 0.2 0 0.1 0 0.2-0.1 0.2-0.2 0.5-0.5 0.2-0.4 0.5-0.8-0.3-0.2-0.8-0.6-0.5-0.3-0.9-0.6 0.1 2.7 0.6 4.8zm18 7h-1.2q0-0.3-0.1-0.6 0-0.3-0.1-0.6-0.1 0.2-0.2 0.3 0 0.1-0.1 0.2-1.1-0.4-1.9-1.1-0.9-0.7-1.4-1.6-0.9 2.1-3.6 2.8-0.1-0.1-0.2-0.3-0.1-0.3-0.3-0.5-0.1-0.2-0.2-0.3 1.2-0.3 2-0.8 0.7-0.5 1.1-1.3h-3.3v-1.1h3.6q0.1-0.2 0.1-0.5 0-0.2 0-0.5h-3.2v-1.1h2.2q-0.2-0.3-0.5-0.7-0.2-0.4-0.5-0.7l1.1-0.5q0.3 0.3 0.6 0.8 0.3 0.5 0.5 0.9l-0.6 0.2h2.5l-0.7-0.2q0.2-0.4 0.5-0.9 0.2-0.5 0.3-0.9l1.2 0.4q-0.1 0.4-0.4 0.8-0.2 0.4-0.4 0.8h2.1v1.1h-3.3q0 0.2 0 0.5 0 0.3-0.1 0.5h3.8v1.1h-3.2q0.5 0.6 1.2 1.1 0.8 0.5 1.8 0.8-0.1 0.1-0.1 0.2-0.1 0.1-0.2 0.3h0.9q0.3 0 0.4-0.1 0.2-0.2 0.2-0.5v-7.1h-4.6v-5h6v12.6q0 0.7-0.4 1.1-0.4 0.4-1.3 0.4zm-10.2 0h-1.5v-14.1h6v5h-4.5zm7.3-11.1v0.9h3.2v-0.9zm-7.3 0v0.9h3.2v-0.9zm7.3-1.9v0.9h3.2v-0.9zm-7.3 0v0.9h3.2v-0.9zm16.9 14.2h-3v-1.1h1.7v-12.9h-1.7v-1.1h3zm19-1.2h-1.4v-4.3q-0.7 0.8-1.7 1.6-1 0.7-2.1 1.4-1.1 0.5-2.2 1 0-0.2-0.2-0.4-0.1-0.3-0.3-0.5-0.2-0.2-0.3-0.3 1-0.3 2-0.9 1-0.5 1.9-1.1 0.9-0.7 1.6-1.4h-3.3v-5.7h4.6v-1.1h-6.2v-1.2h6.2v-1.6h1.4v1.6h6.2v1.2h-6.2v1.1h4.6v5.7h-3.3q0.7 0.7 1.6 1.3 0.9 0.7 1.9 1.2 1.1 0.5 2.1 0.9-0.2 0.1-0.4 0.3-0.1 0.2-0.3 0.5-0.1 0.2-0.2 0.4-1.1-0.5-2.2-1.1-1.1-0.6-2.1-1.3-0.9-0.8-1.7-1.6zm0-7.3v1.3h3.2v-1.3zm0-2.2v1.2h3.2v-1.2zm-4.6 2.2v1.3h3.2v-1.3zm0-2.2v1.2h3.1v-1.2zm18.9 9.5h-1.2q0-0.3-0.1-0.8-0.1-0.4-0.2-0.7h1.2q0.3 0 0.5-0.1 0.1-0.1 0.1-0.4v-3.6h-4v-4.8h9.5v4.8h-4v4.1q0 0.8-0.5 1.1-0.4 0.4-1.3 0.4zm8-11.6h-14v-1.3h6.3v-1.8h1.5v1.8h6.2zm-10.2 2.4v2.4h6.5v-2.4zm9.5 8.6q-0.7-0.4-1.5-1-0.7-0.6-1.4-1.2-0.7-0.7-1.2-1.3l1.1-0.9q0.4 0.6 1.1 1.2 0.7 0.6 1.5 1.2 0.7 0.5 1.3 0.9-0.2 0.1-0.5 0.5-0.3 0.3-0.4 0.6zm-12.4 0q-0.2-0.3-0.5-0.6-0.3-0.3-0.5-0.5 0.5-0.2 1-0.6 0.6-0.4 1.1-0.9 0.6-0.5 1.1-0.9 0.4-0.5 0.7-0.9l1.2 0.9q-0.6 0.6-1.3 1.3-0.7 0.6-1.4 1.2-0.8 0.6-1.4 1zm28.8 0.5q-1.2-0.9-2.1-2.1-0.8-1.2-1.3-2.5-0.5-1.4-0.7-2.7h-1v5.3q0.8-0.1 1.5-0.3 0.7-0.2 1.1-0.4v1.3q-0.4 0.2-1 0.4-0.6 0.1-1.4 0.3-0.7 0.2-1.4 0.4-0.7 0.2-1.2 0.3l-0.4-1.4q0.2 0 0.6-0.1 0.4 0 0.8-0.1v-12.1h6.3v6.4h-2.6q0.1 0.5 0.2 1 0.1 0.5 0.3 1 0.5-0.3 1-0.7 0.5-0.4 0.9-0.8l0.9 1q-0.4 0.4-1 0.8-0.7 0.5-1.3 0.8 0.5 0.9 1.3 1.8 0.7 0.8 1.6 1.3-0.3 0.2-0.6 0.6-0.3 0.3-0.5 0.5zm-13.5-0.4l-0.3-1.3q0.4 0 1.2-0.1 0.8-0.2 1.6-0.3v-4.3h-2.3v-1.1h2.3v-1.5h-1.7v-0.9q-0.2 0.2-0.4 0.4-0.2 0.2-0.4 0.3-0.1-0.2-0.5-0.4-0.3-0.4-0.5-0.5 0.5-0.3 1-0.9 0.6-0.5 1.1-1.2 0.5-0.6 0.9-1.2 0.4-0.6 0.6-1.1l1.3 0.2q0.1 0.3 0.5 0.8 0.3 0.4 0.7 0.9 0.5 0.4 0.9 0.8 0.4 0.4 0.8 0.6-0.1 0.1-0.3 0.4-0.2 0.1-0.3 0.4-0.2 0.1-0.3 0.3-0.7-0.5-1.4-1.3-0.8-0.8-1.3-1.5-0.3 0.5-0.9 1.3-0.6 0.7-1.2 1.4h4.6v1.2h-1.8v1.5h2.2v1.1h-2.2v4q0.6-0.1 1.1-0.2 0.6-0.1 0.9-0.2v1.2q-0.4 0.1-1.2 0.3-0.7 0.2-1.6 0.4-0.9 0.1-1.7 0.3-0.8 0.1-1.4 0.2zm8.4-9.6v1.5h3.5v-1.5zm0-2.5v1.4h3.5v-1.4zm-7.3 9.9q-0.1-0.4-0.2-0.9-0.2-0.5-0.4-1-0.2-0.5-0.4-0.8l1.1-0.4q0.2 0.3 0.4 0.8 0.2 0.5 0.4 1 0.2 0.5 0.2 0.8-0.2 0.1-0.5 0.3-0.4 0.1-0.6 0.2zm4-0.4q-0.1-0.1-0.5-0.2-0.3-0.1-0.5-0.2 0.1-0.3 0.4-0.8 0.2-0.4 0.3-0.9 0.2-0.5 0.3-0.8l1.2 0.4q-0.1 0.3-0.3 0.7-0.2 0.5-0.5 1-0.2 0.5-0.4 0.8zm24.9 2.5h-11.9v-1.2h5v-2h-4v-1.2h4v-1.7q-0.2 0.2-0.4 0.5-0.2 0.2-0.4 0.3-0.3-0.3-0.8-0.8-0.4-0.5-0.8-1-0.3 0.6-0.7 1.1-0.3 0.6-0.7 0.9-0.2-0.1-0.6-0.4-0.4-0.2-0.6-0.3 0.5-0.5 1-1.3 0.5-0.8 0.9-1.6 0.4-0.8 0.6-1.6l1.3 0.4q-0.1 0.4-0.3 0.8-0.1 0.4-0.3 0.8 0.4 0.4 0.9 1 0.5 0.5 0.9 0.9v-4.1h1.5v4.4q0.4-0.5 0.8-1.2 0.4-0.7 0.8-1.5 0.3-0.8 0.4-1.5l1.3 0.4q-0.1 0.8-0.5 1.6 0.3 0.4 0.8 0.8 0.4 0.4 0.9 0.7 0.4 0.3 0.8 0.5-0.2 0.2-0.5 0.5-0.2 0.4-0.4 0.6-0.5-0.3-1.1-0.8-0.6-0.6-1.1-1.1-0.3 0.6-0.6 1.2-0.4 0.5-0.7 0.9-0.2-0.2-0.5-0.4-0.2-0.2-0.4-0.3v1.3h4.2v1.2h-4.2v2h5.4zm-13.5 0.5q-0.1-0.1-0.4-0.2-0.2-0.2-0.5-0.3-0.2-0.1-0.3-0.1 0.7-1.2 1.1-2.9 0.3-1.8 0.3-4.2v-5.2h5.8v-1.7h1.5v1.7h5.9v1.3h-11.8v3.8q0 2.7-0.4 4.6-0.3 1.9-1.2 3.2zm21.6-1.2h-1.5v-11.2h1.5l5.7 8.6v-8.6h1.5v11.2h-1.4l-5.8-8.8zm17.1 0h-7.4v-11.2h7.2v1.4h-5.8v3.4h5.3v1.4h-5.3v3.7h6zm5 0h-1.4l-2.6-11.2h1.5l1.9 8.5 2.3-8.5h1.3l2.3 8.5 1.9-8.5h1.5l-2.6 11.2h-1.4l-2.3-8.8zm15.4 0h-1.6l4.3-11.2h1.3l4.4 11.2h-1.7l-1-2.9h-4.7zm3.5-9.1l-1.9 4.9h3.6zm10.7 9.3q-1.5 0-2.7-0.7-1.2-0.7-1.9-2.1-0.6-1.3-0.6-3 0-1.8 0.6-3.1 0.7-1.3 1.9-2 1.2-0.8 2.7-0.8 1.2 0 2.2 0.4 1 0.5 1.7 1.2l-1 1.1q-0.5-0.6-1.3-0.9-0.7-0.3-1.6-0.3-1.2 0-2 0.5-0.8 0.6-1.3 1.6-0.4 1-0.4 2.3 0 1.3 0.4 2.3 0.5 1 1.3 1.5 0.8 0.6 2 0.6 0.8 0 1.3-0.2 0.6-0.1 1.1-0.4v-2.8h-2.1v-1.4h3.6v5.1q-0.7 0.5-1.7 0.8-1 0.3-2.2 0.3zm13.5-0.2h-7.5v-11.2h7.3v1.4h-5.8v3.4h5.3v1.4h-5.3v3.6h6zm11 0.3q-1.6 0-2.7-0.8-1.2-0.7-1.9-2-0.6-1.3-0.6-3.1 0-1.8 0.6-3.1 0.7-1.3 1.9-2 1.1-0.8 2.7-0.8 1.3 0 2.4 0.6 1.1 0.6 1.8 1.7l-1.3 0.8q-0.5-0.8-1.3-1.2-0.7-0.4-1.6-0.4-1.1 0-2 0.5-0.8 0.6-1.2 1.6-0.5 1-0.5 2.3 0 1.4 0.5 2.3 0.4 1 1.2 1.6 0.9 0.5 2 0.5 0.9 0 1.6-0.4 0.8-0.4 1.3-1.2l1.3 0.8q-0.7 1.1-1.8 1.7-1.1 0.6-2.4 0.6zm13.5-0.3h-7.4v-11.2h1.4v9.8h6zm3.1 0h-1.5v-11.2h1.5zm3.9 0h-1.4v-11.2h1.4l5.8 8.7v-8.7h1.4v11.2h-1.4l-5.8-8.7zm11.1 0h-1.4v-11.2h1.4zm7.1 0.2q-1.5 0-2.7-0.7-1.2-0.7-1.8-2.1-0.7-1.3-0.7-3 0-1.8 0.7-3.1 0.6-1.4 1.8-2.1 1.2-0.7 2.7-0.7 1.4 0 2.5 0.6 1.1 0.6 1.7 1.7l-1.3 0.7q-0.4-0.7-1.2-1.1-0.8-0.5-1.7-0.5-1.1 0-1.9 0.6-0.8 0.5-1.3 1.5-0.5 1-0.5 2.4 0 1.3 0.5 2.3 0.5 1 1.3 1.5 0.8 0.6 1.9 0.6 0.9 0 1.7-0.5 0.8-0.4 1.2-1.1l1.3 0.7q-0.6 1.1-1.7 1.7-1.1 0.6-2.5 0.6z"/>
	</g>
</svg>